<?xml version="1.0" encoding="utf-8"?>
<!-- Generator: Adobe Illustrator 26.2.1, SVG Export Plug-In . SVG Version: 6.00 Build 0)  -->
<svg version="1.1" id="Layer_1" xmlns="http://www.w3.org/2000/svg" xmlns:xlink="http://www.w3.org/1999/xlink" x="0px" y="0px"
	 viewBox="0 0 248.6 435.6" style="enable-background:new 0 0 248.6 435.6;" xml:space="preserve">
<g>
	<path d="M4.9,246c0-1.2,0.2-2.5,0.5-3.6c0.5-2,0.9-4,1.3-6c0-0.9,0.1-1.8,0.3-2.7c1-2.6,1-5.3,1.8-7.9c0.1-0.4,0.2-0.8,0.3-1.3
		c0.3-1.8,0.5-3.5,0.9-5.3c0.6-2.4,0.6-5,1.5-7.3c0.2-0.7,0.3-1.5,0.2-2.3c0-0.4,0.1-0.8,0.2-1.2c0.2-1,0.5-2.1,0.7-3.1
		c0.3-2,0.6-4,1-6c0.2-1.4,0.6-2.9,0.9-4.3c0-0.7,0.1-1.3,0.2-2c0.3-0.7,0.4-1.4,0.3-2.1c0-0.3,0.1-0.6,0.2-0.9
		c0.6-1.4,1-2.9,1.1-4.5c0.3-1.3,0.4-2.6,0.6-3.9c0.1-0.7,0.2-1.3,0.3-2c0.2-1.4,0.4-2.8,0.6-4.2c0-0.9-0.3-1.7-0.8-2.5
		c0-0.1-0.3-0.1-0.6-0.1c-0.2,0.5-0.3,0.8-0.4,1.2c-0.3,1.1-0.5,2.3-0.9,3.4c-0.6,2.1-1,4.2-1.2,6.4c-0.2,1.8-0.6,3.5-1.1,5.2
		c-0.1,0.2-0.1,0.5-0.1,0.7c-0.1,0.9-0.2,1.9-0.4,2.8c-0.2,1.5-0.5,3-0.8,4.4c-0.2,1.4-0.4,2.8-0.6,4.1c-0.1,0.4-0.1,0.6-0.1,1.2
		c-0.1,0.5-0.1,1-0.2,1.5c-0.4,2-0.7,4.1-1.1,6.1c-0.2,1-0.3,1.9-0.5,2.9c-0.1,0.5-0.3,1.1-0.4,1.6c-0.4,2-0.7,4.1-1.1,6.1
		c-0.5,1.6-0.8,3.2-0.9,4.8c0,0.4-0.1,0.9-0.3,1.3c-0.5,1-0.7,2.1-0.6,3.1c0.1,1.1-0.1,2.3-0.6,3.4c-0.1,0.3-0.1,0.5-0.1,0.8
		c-0.1,0.9-0.2,1.8-0.5,2.7c-0.3,0.6-0.5,1.3-0.5,2c0,0.3,0,0.6-0.1,1c-0.5,1.3-0.6,2.7-0.3,4c0.1,1.3,0.3,2.5-0.3,3.7
		C4.6,247.1,4.9,246.8,4.9,246z"/>
	<path d="M198,90.3c0.3,0,0.5-0.2,0.7-0.4c0.1-0.4-0.6-0.9-1.5-0.9c-0.1,0.2-0.4,0.3-0.4,0.5l0-0.1C196.8,89.8,197.4,90.3,198,90.3z
		"/>
	<path d="M99.4,148.3L99.4,148.3c0.6-2.6,1.3-5.1,1.9-7.6c0.3-1.9,0.8-3.8,1.6-5.6c0.3-0.5,0.5-1.1,0.6-1.6c0.1-1.3,0.3-2.6,0.8-3.8
		c0.3-0.6,0.2-1.4-0.3-1.8c-1.1,0-1.2,0.8-1.4,1.5c-0.5,1.8-1,3.5-1.4,5.3s-1,3.4-1.4,5.2c-0.1,0.8-0.3,1.5-0.5,2.2
		c-0.7,1.8-0.8,3.7-1.5,5.5c-0.4,0.8-0.1,1.7,0.6,2.2C98.9,149.4,99.3,148.9,99.4,148.3z"/>
	<path d="M52.5,92.5c0.8,0,1.5-0.6,1.6-1.2c0-0.6-0.4-1.1-1-1.1c0,0-0.1,0-0.1,0c-0.7-0.1-1.4,0.4-1.5,1.2c0,0,0,0.1,0,0.1l0-0.1
		C51.5,92,51.9,92.4,52.5,92.5z"/>
	<path d="M92.9,132.1c-0.1,0.7-0.3,1.3-0.5,2c-0.4,2.1-0.8,4.2-1.2,6.3c-0.1,0.5-0.4,1-0.4,1.5c-0.3,1.6-0.8,3.1-1.4,4.6
		c0.9,0.9,1.6,0.8,2.1-0.3c0.1-0.1,0.1-0.2,0.2-0.3c0.3-1.3,0.7-2.6,1-3.9c0.1-0.5,0.3-1,0.4-1.5c0.2-0.9,0.5-1.7,0.7-2.6
		s0.2-1.8,0.4-2.7c0.2-0.9,0.5-2,0.6-3c0.2-1.5,0.5-3,0.9-4.4c0.2-0.6,0.3-1.2,0.3-1.9c0-0.4,0-0.8-0.1-1.2
		c-0.1-0.2-0.3-0.4-0.5-0.5c-0.3,0-0.5,0.2-0.6,0.4c-0.2,0.3-0.4,0.7-0.5,1.1C93.8,127.7,93.3,129.9,92.9,132.1z"/>
	<path d="M217.8,208.6c-0.6,1.9-1.4,3.7-2,5.6c-0.6,1.9-1.2,3.8-1.9,5.7c-0.5,1.7-1.1,3.4-1.6,5.1c-0.9,2.7-1.7,5.3-2.6,7.9
		c-0.5,1.3-0.3,2.8-1.2,3.9c0,0.1,0,0.2,0,0.2c0.1,1.5-0.6,2.8-1,4.1c-0.5,1.7-1.4,3.3-1.5,5.1c0,0.2-0.3,0.3-0.4,0.5
		c-0.2,0.3-0.4,0.6-0.5,0.9c-0.1,1.7-0.6,3.4-1.5,4.8c-0.1,0.2-0.2,0.5-0.2,0.8c0,0.3-0.1,0.5-0.2,0.8c-0.4,1-0.9,1.9-1.3,2.9
		c-0.6,1.5-0.7,3.2-1.9,4.4c-0.1,0.2-0.2,0.4-0.2,0.5c-0.2,0.5,0,1,0.5,1.2c0,0,0.1,0,0.1,0c0.2-0.2,0.3-0.4,0.4-0.6l0,0
		c0.3-0.6,0.6-1.2,1-1.7c1.2-1.3,2.1-2.8,2.7-4.4c0.6-1.4,1.2-2.7,1.8-4.1c0.1-0.4,0.2-0.8,0.3-1.2l0.6-2.3c0.1-0.3,0.2-0.7,0.3-1
		s0.3-0.7,0.4-1.1c0.2-0.4,0.5-0.9,0.6-1.4c0.5-1.7,1-3.4,1.5-5c0.6-2.1,1.3-4.1,1.9-6.2c0.6-2.2,0.9-4.6,2.1-6.7
		c0.1-0.2,0.1-0.4,0.1-0.6c0.6-2,1-4,1.8-5.9c0.9-2.3,1.1-4.7,2.3-6.9c0.5-1.1,0.8-2.2,1.1-3.3c0.1-0.2,0.2-0.4,0.3-0.6
		c0.6-1,1-2.1,1.3-3.2c0.1-1.4,0.5-2.7,1-4c0.1-0.4,0.2-0.8,0.3-1.2c0.1-0.8,0.4-1.6,0.8-2.2c0.7-1.2,1.1-2.6,1.1-4
		c0-0.3-0.1-0.5-0.3-0.7c-0.3-0.1-0.6-0.1-0.9,0.1c-0.4,0.4-1,0.7-1,1.4c-0.1,0.4-0.3,0.8-0.5,1.2c-1.1,2.1-1.9,4.2-2.4,6.5
		C218.7,205.6,218.3,207.1,217.8,208.6z"/>
	<path d="M238.4,188.1c-0.3-0.4-0.6-0.3-0.9,0c-1,1-2.1,4.5-2.3,5.3c-0.3,1-0.7,2-1,3c-0.5,1.5-0.9,3.1-1.4,4.6
		c0,0.1-1.1,3.2-1.2,3.6c-0.5,1.5-1,2.9-1.4,4.4c-0.4,1.5-0.8,3-1.2,4.5c-1.1,4.1-2.3,8.3-3.8,12.3c-0.5,1.6-1,3.2-1.6,4.8
		c-0.6,1.6-1.1,3.1-1.6,4.6c-0.5,1.5-0.8,2.9-1.2,4.4c-0.5,1.8-1.1,3.6-1.7,5.4c-0.2,0.8-0.4,1.5-0.4,2.3c0.1,0.4-0.1,0.9-0.3,1.2
		c-0.2,0.2-0.3,0.5-0.3,0.8c-0.5,1.4-0.9,2.8-1.4,4.2c-0.1,0.5-0.2,1-0.2,1.5c0,0.5,0.1,0.9-0.6,1.1c-0.2,0.1-0.7,1.3-0.7,1.3
		c-0.5,1-0.8,2-1,3.1c-0.2,2-1.2,3.7-1.7,5.5c-0.3,1.2-2.8,8-2.8,8.2c-0.2,0.9-0.3,1.9-0.5,2.8c-0.3,1.2-0.8,2.3-1.1,3.4
		c-0.3,0.9-0.5,1.7-0.7,2.6c-0.2,1.3-0.6,2.5-1.2,3.6c-0.5,0.6-0.6,1.4-0.4,2.1c0.1,0.2-0.1,0.6-0.2,0.9c-0.4,0.9-0.8,1.7-1.1,2.7
		c-0.4,1.2-0.6,2.5-0.9,3.8c-0.1,0.3-0.1,0.6-0.2,0.9c-0.2,1.3-0.3,2.6-0.5,3.9c-0.2,1-0.5,2-0.7,3c-0.2,0.9,0.3,1.9,1.2,2.2
		c0.2-0.6,0.4-1.1,0.7-1.7c0.7-1,1-2.2,1.1-3.5c0.1-1.7,0.4-3.5,0.8-5.2c0.7-2.5,1.2-5,1.8-7.5c0.3-1.4,0.7-2.8,1.1-4.2
		c0.2-0.7,0.4-1.4,0.6-2c0.2-0.5,0.4-1,0.5-1.5c0.5-2,1-4,1.6-6c0.1-0.4,0.9-3.4,1-3.7c0.1-0.3,0.1-0.7,0.2-1
		c0.5-1.4,1.4-2.7,1.5-4.2c0-0.2,0.2-0.4,0.3-0.7c0.1-0.4,0.3-0.9,0.4-1.3c0-0.4,0.1-0.7,0.2-1.1c0.6-1.5,1.2-3,1.6-4.6
		c0.4-1.4,1-2.9,1.6-4.2c0.9-1.8,1.4-3.8,1.6-5.8c0-0.3,0.1-0.6,0.2-0.9c0.8-2.2,1.6-4.4,2.3-6.6c0.6-2,1.1-4.1,1.8-6.2
		c0.8-2.7,1.7-5.4,2.6-8.1c0.8-2.3,1.5-4.6,2-7c0-0.2,0.1-0.3,0.2-0.4c0.8-1.8,1.4-3.7,1.7-5.6c0.4-1.4,0.7-2.8,1.1-4.2
		c0-0.1,0.1-0.2,0.1-0.3c0.5-1.4,1-2.8,1.4-4.2c0.1-0.3,1.2-2.9,1.3-3.8c0.1-0.4,0.2-0.8,0.3-1.2c0.5-1.3,1-2.6,1.4-3.9
		c0.1-0.4,1.1-3.5,1.3-4.4c0-0.6,0.2-1.2,0.6-1.6C238.8,189.1,238.8,188.5,238.4,188.1z"/>
	<path d="M243.1,401.6c-0.5-0.1-1-0.2-1.5-0.4c-0.5-0.3-1-0.5-1.5-0.7c-1.5-0.3-3-1.1-4.7-0.6c-0.2,0.1-0.5-0.2-0.7-0.3
		c-1.1-0.8-2.4-1.4-3.8-1.6l-0.7,0.8l-1.3-1.2l-0.9,1l-0.8-1.8c1.4,0.3,2.8,0.5,4.2,0.6c1.4,0,2.7,0.7,4.1,0
		c-0.1-0.9-0.2-1.2-1.1-1.3c-1.1-0.2-2.3-0.3-3.4-0.2c-0.9,0.2-1.8,0-2.7,0.6c-0.3-0.7-0.8-0.6-1.4-0.6c-0.6-0.1-1.2-0.2-1.7-0.4
		c-1.3-0.2-2.5-0.3-3.8-0.5c0-0.1,0-0.1-0.1-0.2c0.9,0.1,1.9-0.4,2.7,0.5c0,0,0-0.1,0-0.1c0.2-0.4,0.7-0.6,1.1-0.4
		c0.5,0.1,1,0.1,1.5,0.2c0.5,0.2,1,0,1.3-0.4l-0.3-0.9c-1.3-0.3-2.7-0.1-4.1-1c1.2-0.1,2.2-0.1,3.1-0.3c0.8,0,1.5-0.2,2.1-0.7
		c0.6-0.6,0.6-0.9,0-1.4c-0.6-0.5-1.3-0.9-2-1.2c-2-0.4-4-0.6-6.1-0.6c-0.2,0-0.3,0-0.5,0c-2,0.2-2,0.2-2.3,2.2c0,0.1-0.1,0.1,0,0
		l-0.9,0.3c0.1,0.3,0.1,0.7,0.3,0.8c0.3,0.2,0.7,0.3,1.1,0.4c0.9,0.2,1.8,0.4,2.6,0.6c-1.6,0.7-1.6,0.7-3.1,0.4
		c-0.1,0-0.2-0.1-0.3-0.1c-0.9,0.2-1.9,0.1-2.8-0.3c-0.5-0.2-1.1-0.1-1.3,0.6c-0.2-0.2-0.4-0.6-0.6-0.6c-0.6-0.1-1.3,0-1.9,0.2
		c-0.5,0.2-1,0.2-1.5,0c-0.9-0.3-1.2-0.1-1.8,0.9c1.5,1.3,3.4,1.7,5.4,2.2c-1,0.4-1.7,0.8-2.4,1.1c-0.1,0-0.2,0-0.3-0.1
		c-0.5-0.2-1-0.2-1.5,0.1c-0.3,0.1-0.6,0.2-0.9,0.2c-0.8,0-1.6-0.1-2.4,0c-0.6,0.1-1.2,0.2-1.9,0.4c-0.4,0.1-0.8,0.4-0.8,0.9
		s0.5,0.6,1,0.6c0.8,0.1,1.5,0.2,2.3,0.2c1.6,0.2,3.2,0.3,4.7,0.2c1.9-0.3,3.8,0.2,5.7-0.2c0,0,0.1,0,0.1,0c0.4,0,0.8,0.4,0.8,0.8
		c0,0.5-0.2,0.8-0.8,0.8c-1.2-0.1-2.4-0.2-3.6-0.3c-0.3-0.1-0.7-0.1-1-0.1c-1.6,0.2-3.2,0.4-4.8,0.6c0.5,0.8-0.6,0.5-0.6,1
		c1.3,1,2.8,1.1,4.3,1.7c0.2,0.1,0.3,0.1,0.5,0c0.2-0.1,0.5-0.1,0.6-0.4s0-0.5-0.5-0.5s-0.6-0.2-0.5-0.7c1.9-0.1,3.9-0.1,5.8,0.2
		c0.7,0.1,0.7,0.6,0.7,1.1c-0.1,0.5-0.1,0.9-0.1,1.4c0.5,1.6,0.2,3.1,0.4,4.8c0.1,1.7,0.1,3.4,0.2,5.1c0.1,0.8,0.1,1.5-0.2,2.3
		c-0.4,1.2,0,1.7,1.3,1.7h0.2c0.3,0,0.5,0,0.8-0.1c1-0.3,1.6-1.4,1.2-2.4c-0.3-1.3-0.4-2.7-0.3-4c0.1-0.6,0-1.2-0.1-1.8
		c-0.4-2.1-0.5-4.3-0.4-6.4c0-1.2,0-1.2,1.2-1c0.1,0,0.2,0,0.2,0c1.4-0.3,2.7,0.3,4,0.5c1.6,0.2,3.1,0.7,4.7,0.7
		c0.6,0.1,1.2,0.2,1.8,0.3c1,0.3,2,0.5,3,0.6c1.9,0.1,3.9,0.2,5.8,0.2c1.2,0.1,2.3-0.3,3.2-1.1c0.4-0.4,0.6-0.8,0.3-1.2
		C244.8,402.3,244,401.7,243.1,401.6z M225.6,390.7c-1,0.5-2,0.5-3.5-0.1c0.4-0.2,0.6-0.4,0.8-0.4
		C223.8,390.2,224.8,389.9,225.6,390.7z M217.2,394.4l0.1,0.7c-1.3,0.2-2.5-0.1-3.6-0.7H217.2z M217.5,398.3
		c-0.1,0.2-0.2,0.2-0.2,0.2c-1.2,0.2-2.4,0.2-3.6,0.2c-0.9-0.1-1.7-0.2-2.6-0.2c-0.4,0-0.7,0-1.1,0v-0.3c0.3,0,0.7,0,1,0
		c0.7,0,1.4-0.1,2.1-0.2c1.2-0.1,2.5-0.2,3.7-0.1C217,397.9,217.2,398.1,217.5,398.3L217.5,398.3z M225.5,396.8l0.7,0.2l-0.1,0.2
		l-0.7-0.2L225.5,396.8z M222.2,397.8c0.7,0,1.3,0.1,2,0.2c0.7,0.2,1.4,0.4,2.1,0.7v0c-1.7,0.6-3.4-0.3-5.1,0.1
		C221.3,397.9,221.8,397.8,222.2,397.8z M242.1,403.7c-1.1,0.4-2.3,0.6-3.5,0.5c-1.1-0.1-2.1-0.2-3.2-0.3c-0.8,0.1-1.6-0.1-2.3-0.5
		c-0.1-0.1-0.4-0.1-0.6-0.1c-1.7-0.2-3.4-0.5-5.1-0.7c-1.5-0.2-2.9-0.3-4.4-0.5c-0.2,0-0.5,0-0.7,0c-0.9-0.1-1-0.2-1-1.1
		c0-0.3,0-0.5,0.1-0.8v0c0.3,0,0.6-0.1,0.9-0.2c1.8,0,3.6-0.1,5.4,0c1.2,0,2.4,0.3,3.6,0.3c2.2,0.1,4.4,0.4,6.6,0.9
		c1.1,0.2,2.2,0.3,3.2,0.6c0.5,0.1,1,0.4,1.4,0.7C242.8,402.8,242.7,403.4,242.1,403.7z"/>
	<path d="M244.9,186.4c-0.3-0.3-0.8-0.2-1,0.1c0,0.1-0.1,0.1-0.1,0.2c-0.3,0.3-0.5,0.7-0.6,1.1c-0.5,1.4-0.9,2.9-1.4,4.3
		c-0.2,0.6-0.4,1.1-0.5,1.7c-0.2,0.6-1.2,3.8-1.3,4.1c-0.3,0.7-0.5,1.4-0.7,2c-0.4,1.3-0.9,2.5-1.3,3.8c-0.4,1.3-0.9,2.6-1.3,4
		c-0.6,1.6-1,3.2-1.3,4.8c0,0.2-0.1,0.4-0.2,0.6c-0.9,2.7-1.9,5.4-2.8,8.1c-0.5,1.7-1,3.3-1.5,5c-0.1,0.3-0.2,0.7-0.1,1.1
		c0.2,1.4-0.2,2.8-1.2,3.9c-0.2,0.3-0.6,0.7-0.6,1c0.1,1.4-1,2.4-1,3.7c0,0.5-0.2,1.1-0.3,1.6c-0.1,0.3-0.2,0.5-0.3,0.8
		c-0.2,0.4-0.4,0.7-0.5,1.1c-0.5,1.4-0.9,2.7-1.3,4.1c-0.5,1.7-1,3.3-1.5,5c1.1,0.5,1.6,0.3,2-0.6c0.5-1,0.8-2.1,1-3.2
		c0.4-1.6,1-3.2,1.5-4.8c0.5-1.8,1.4-3.5,1.3-5.4c0.1-0.4,0.2-0.7,0.3-1c0.2-0.7,0.5-1.3,0.8-2c0.2-0.7,0.4-1.4,0.6-2
		c0.4-0.9,0.8-1.9,1.1-2.9c0.6-2.8,1.5-5.5,2.4-8.2c0.5-1.4,1.1-2.8,1.5-4.2c0.5-1.7,0.7-3.5,1.3-5.2c0.9-2.5,1.3-5.2,2.6-7.5
		c0-0.1,0.1-0.2,0.1-0.2l1.1-4.2c0,0,0.5-1.3,0.6-1.5v0c0.1-0.5,0.2-1,0.4-1.5c0.9-1.5,1-3.3,1.9-4.8c0.3-0.5,0.4-1,0.7-1.5
		C245.7,187.1,245.3,186.7,244.9,186.4z"/>
	<path d="M151.1,129.2L151.1,129.2c-0.5,1-0.9,2-1.3,3c-0.6,1.8-1.1,3.7-1.7,5.6c-0.3,1-0.8,2-1,3c-0.3,1.1-0.5,2.2-0.3,3.4
		c0.6-0.3,1-0.7,1.2-1.2c0.2-0.6,0.3-1,0.4-1.5c0.3-0.9,0.5-1.8,0.8-2.7c0.5-1.4,1.2-2.7,1.5-4.1c0.3-1.3,0.7-2.6,1.4-3.8
		c0.4-0.7,0.4-1.6-0.2-2.2C151.5,128.8,151.2,128.9,151.1,129.2z"/>
	<path d="M219.1,190.6c-0.4-0.2-0.8-0.2-1,0.3c-0.3,1.1-0.7,2.2-1.3,3.3c0,0.1,0,0.2,0,0.3c0.1,0.4,0,0.8-0.4,1.1
		c-0.3,0.3-0.5,0.6-0.6,1c-0.5,1.2-1,2.4-1.4,3.7c-0.9,2.7-1.8,5.3-2.7,8c-0.4,1.2-0.8,2.5-1.1,3.8c-0.5,1.2-0.8,2.5-0.9,3.8
		c-0.1,1.1-0.5,2.1-1,3c-0.3,0.9-0.8,1.8-1.1,2.7c-0.6,1.8-1.1,3.6-1.7,5.5c-0.6,1.3-1,2.7-1.3,4.2c-0.3,1.3-0.7,2.6-1.2,3.8
		c-0.5,1-0.8,2.1-1,3.3c-0.1,0.5-0.3,0.9-0.5,1.3c-0.3,1-0.7,1.9-1,2.9c-0.3,1-0.6,2.2-0.9,3.3c-0.4,1.6-1.3,3-1.3,4.7
		c0,0.2-0.1,0.5-0.3,0.6c-0.9,0.7-1.1,3.5-1.1,3.5c-0.4,0.7-0.7,1.5-0.8,2.4c0,1.2-0.3,2.4-1,3.5c-0.1,0.3-0.2,0.5-0.2,0.8
		c-0.1,0.5-0.3,1.1-0.5,1.6c-0.9,2.3-1.6,4.7-2.1,7.1c-0.2,0.6-0.2,1.2-0.4,1.8c-1,2.7-1.5,5.5-2.2,8.3c-0.2,0.7-0.3,1.3-0.5,2
		c-0.8,2.3-1.7,4.5-2.5,6.8c-0.2,0.6-0.3,1.2-0.3,1.8l0.3,0.1c0.2-0.1,0.5-0.1,0.6-0.3c0.7-1.2,1.3-2.4,1.8-3.7c0.6-1.6,1-3.4,1.4-5
		c0.8-3.5,1.7-6.9,2.9-10.3c0.2-0.5,0.3-1.1,0.4-1.6c0.3-1.3,0.7-2.6,1-3.9c0.2-0.6,0.4-1.1,0.5-1.7c0.3-1.3,0.5-2.5,0.8-3.8
		c0.2-0.7,0.4-1.5,0.6-2.2c0.3-1.1,0.7-2.2,1-3.3c0-0.1,1.1-3.1,1.4-3.9c0.4-1.2,0.6-2.5,1-3.8c0.5-2,1.2-3.9,1.8-5.8
		c0.3-1,0.8-2,1.1-3c0.5-1.5,0.9-3,1.4-4.4c0.9-2.7,1.9-5.4,2.8-8.1c0.7-2,1.2-4,1.8-5.9c0.4-1.1,0.8-2.3,1-3.5
		c0.3-1.4,0.7-2.7,1.2-4c0.3-0.8,0.5-1.6,0.8-2.4c0.4-1.1,0.7-2.3,1.1-3.4c0.8-2.3,1.7-4.6,2.5-7c0.7-2.4,1.6-4.7,2.6-7
		C219.3,192.1,219.4,191.3,219.1,190.6z"/>
	<path d="M133.1,9.7c-0.2-0.1-0.4,0-0.6-0.1c-2-0.8-4.1-0.6-6.2-0.4c-0.6,0-1.2,0.3-1.9,0.4c-1.8,0.2-3.6-0.1-5.3,0.6
		c-0.2,0-0.4,0-0.6,0c-1-0.1-2-0.2-3-0.2c-1.7,0-3.3,0.1-5,0.3c-0.8,0-1.6,0.5-1.9,1.2c-0.3,0.7-0.2,1.5,0.2,2.1
		c0.5,0.5,1,0.2,1.5,0.2c1-0.3,2-0.4,3-0.4c0.1,0.4,0.2,0.7,0.2,1.1c0,1.9,0.1,3.8,0,5.6c0,1.1-0.4,1.4-1.5,1.1
		c-0.5-0.1-1-0.3-1.3,0.3l1.2,2.7v-0.1c0.9-0.2,1.8-0.2,2.8-0.2c0.9,0.1,1.7-0.1,2.6-0.4c1.1-0.4,2.2-0.5,3.4-0.5
		c1.8,0.1,3.6,0.1,5.5,0.2c1,0,2.1,0,3.1,0c0.2,0,0.3,0.1,0.5,0c0.6-0.2,1.3-0.2,1.9,0c1,0.2,1.8-0.5,2-1.7c0.1-0.8-0.5-1.3-1.4-1.4
		c-1.6-0.2-1.9-0.4-2.2-1.9c-0.2-1.1-0.3-2.2-0.4-3.3c0-0.6,0-1.2,0.2-1.8c0-0.1,0.1-0.2,0.1-0.3c0.2-0.5,0.8-0.6,1.3-0.4
		c0.4,0.1,0.8,0.3,1.2,0.5c0.7,0.2,1.4-0.1,1.8-0.7c0.3-0.7,0.3-1.5-0.1-2.2C133.7,10,133.4,9.8,133.1,9.7z M119.7,19.7
		c-0.9,0.6-1.9,0.9-3,0.8v-0.1c-0.1-0.3-0.1-0.7-0.1-1c0.5-1.6,0.2-3.2,0.4-4.7c0-1,0.7-1.8,1.7-1.9c0.1,0,0.1,0,0.2,0
		c0.4,0,0.8,0.3,0.8,0.7c0.1,1.3,0.1,2.5,0.2,3.8c0,0.6,0.1,1.1,0.1,1.7C119.9,19.2,119.8,19.6,119.7,19.7z M126.5,13.2
		c-0.3,0.8-0.5,1.6-0.4,2.5c0.1,1.2,0.1,2.5,0.2,3.7c0,0.6-0.2,0.9-0.8,1c-0.2,0-0.5,0-0.7,0c-1.2,0-1.3-0.1-1.2-1.3
		c0.1-0.9,0.1-1.8,0.1-2.8s0-2,0-3c0-0.2,0.2-0.4,0.4-0.5c0.8-0.2,1.5-0.3,2.5-0.6V12C126.6,12.4,126.6,12.8,126.5,13.2z"/>
	<path d="M141.7,132.7c0.2-0.8,0.5-1.5,0.7-2.4c-0.2-0.2-0.4-0.5-0.6-0.6v0.1c-0.4-0.2-0.8-0.1-1,0.2c0,0,0,0,0,0
		c-0.4,0.5-0.6,1.1-0.8,1.7c-0.5,1.9-1,3.8-1.5,5.8c-0.2,1-0.4,2-0.7,3c-0.8,2.5-1.7,5-2.6,7.4c-0.3,1-0.7,2-1,2.9
		c-0.1,0.4-0.1,0.9,0.3,1c0.4,0,0.7-0.2,1-0.4c0.2-0.3,0.3-0.5,0.4-0.9c0.1-0.5,0.2-0.9,0.4-1.4c0.5-1.2,1-2.3,1.4-3.5
		s0.6-2.3,1-3.4c0.6-1.4,1-2.8,1.2-4.3c0-0.2,0.1-0.5,0.2-0.7c0.3-1,0.6-2,0.9-3C141.3,133.7,141.6,133.2,141.7,132.7z"/>
	<path d="M143.8,137.5c-0.5,0.1-1,0.6-1.2,1.1c-0.6,1.6-1.1,3.2-1.5,4.9c-0.1,0.4-0.2,0.8-0.3,1.2c1.4,0.6,1.6,0.5,1.9-0.7
		c0.1-0.3,0.1-0.6,0.1-1c0.2-1.3,0.6-2.5,1.3-3.5C144.9,138.5,144.9,138.4,143.8,137.5z"/>
	<path d="M32.3,343.7c0-0.5,0-1,0.1-1.4c1-2,0.7-4.4,1.4-6.5c0.5-1.7,0.7-3.5,1.1-5.2c0.1-0.5,0.2-0.9,0.3-1.4
		c0.2-1.7,0.4-3.3,0.6-5c0.1-0.5,0.3-1,0.4-1.5c0.2-1.2,0.3-2.5,0.5-3.7c0.3-2.4,0.7-4.7,1-7.1c0-0.3,0-0.6,0-0.9
		c0-0.4,0-0.8,0.1-1.3c0-0.3,0.2-0.5,0.2-0.8c0.1-2.4,0.5-4.7,1.1-7c0.1-0.3,0.1-0.5,0.1-0.8c0.2-1.1,0.3-2.1,0.5-3.2
		c0.2-0.7,0.4-1.4,0.4-2.1c-0.1-2.7,1.2-5.2,1.2-7.9c0,0,0-0.1,0-0.1c0.4-2,0.9-4,1.2-6c0.2-0.8,0.2-1.7,0.3-2.6
		c0.7-3.3,1.4-6.6,2-9.9c0.3-1.5,0.4-3.1,0.6-4.6c0.2-0.7,0.3-1.5,0.3-2.2c-0.1-3.2,0.8-6.3,1.3-9.4c0.5-2.1,1-4.2,1.7-6.2
		c0.2-0.6,0.5-1.2,0.6-1.8c0.6-2.9,1.2-5.8,2-8.7c0.1-0.3,0.1-0.6,0-0.8c-0.1-1,0-2,0.3-3c0.1-0.3,0.2-0.7,0.2-1c0-2.1,0.8-4,1.2-6
		c0.1-0.3,0.2-0.5,0.4-0.8c0.4-0.9,0.7-1.9,1-2.8c0.1-0.3,0.1-0.6-0.1-0.9c-0.5-0.4-0.9-0.8-1.5-1.1c-0.8,0.6-1.3,1.5-1.3,2.5
		c0,0.6-0.1,1.2-0.2,1.8c-0.3,1.6-0.6,3.1-0.9,4.7c-0.2,1.1-0.4,2.2-0.6,3.3c-0.1,0.4-0.1,0.9-0.2,1.3c-0.2,1.3-0.3,2.7-0.5,4
		c-0.4,1.8-1,3.6-1.4,5.4c-0.6,2.6-1.1,5.3-1.7,7.9c-0.5,2.4-1.4,4.6-1.4,7.1c0,0.1,0,0.2,0,0.2c-0.4,2.1-0.6,4.2-0.6,6.3
		c0,0.3,0,0.6-0.1,0.8l-1.3,6.3c-0.4,1.9-0.8,3.8-1.2,5.7c-0.4,1.9-0.7,3.8-1.1,5.8c-0.1,0.5-0.2,1.1-0.3,1.6
		c-0.3,2.2-0.7,4.4-1.2,6.5c0,0.2-0.1,0.4-0.1,0.6c-0.5,2.9-0.9,5.8-1.4,8.7c-0.4,2.5-0.8,5.1-1.2,7.7c-0.3,1.9-0.5,3.9-0.7,5.8
		c-0.2,1.4-0.5,2.8-0.7,4.2c-0.4,2.7-0.6,5.5-1.1,8.1c-0.4,2.4-1,4.7-1.5,7c-0.4,1.8-0.8,3.6-1.1,5.4c-0.3,2.4-0.5,4.9-0.9,7.3
		c-0.4,2-0.5,4-0.8,6c-0.4,3-0.7,5.9-1,8.9c-0.3,2.5-0.8,5-1.2,7.5c-0.1,1.5-0.4,3.1-0.9,4.6c-0.3,0.9-0.5,1.8-0.7,2.7
		c-0.2,1.1-0.3,2.2-0.5,3.3c-0.5,2.9-1.1,5.9-1.5,8.8c-0.4,3-1,5.9-1.8,8.8c-0.3,0.7-0.3,1.6,0.2,2.3c0.5-0.1,1.1,0,1.3-0.7
		c0.5-1.8,0.9-3.6,1.4-5.4c0.4-1.8,0.8-3.4,1.1-5.1c0.2-1.5,0.3-3.1,0.5-4.6c0-0.3,0.1-0.5,0.1-0.8c0.3-1.4,0.5-2.7,0.8-4.1
		c0.4-2,0.8-4,1.3-6.1c0.3-1.4,0.7-2.8,1-4.2c0-0.2,0-0.3,0-0.5c-0.2-1.2,0-2.4,0.3-3.5c0.1-0.5,0.2-0.9,0.2-1.4
		c0-2.6,0.2-5.2,0.6-7.7c0.1-0.3,0.1-0.6,0.1-0.8c0.1-1,0.1-2,0.3-3C31.6,348.5,32,346.1,32.3,343.7z"/>
	<path d="M29.5,266.5c-0.5,2.3-0.8,4.5-1.2,6.8c-0.6,3.4-1.2,6.8-1.9,10.2c-0.3,1.4-0.5,2.8-0.7,4.2c-0.2,1.1-0.5,2.2-0.7,3.4
		c-0.2,1.1-0.5,2.3-0.6,3.4c-0.2,2-0.4,4-0.6,6.1c0,0.3,0,0.7,0.2,1c0.2,0.5,0.7,0.6,1,0.2c0.3-0.4,0.5-0.9,0.6-1.4
		c0.2-1.4,0.2-2.9,0.3-4.3c0-0.2,0-0.5,0-0.7c0.3-1.5,0.7-3,1-4.4c0.2-1.2,0.4-2.4,0.6-3.7c0.2-1,0.3-2,0.5-3.1
		c0.2-0.5,0.3-1.1,0.3-1.6c0-1.6,0.3-3.1,0.7-4.6c0.3-1.7,0.8-3.4,1.1-5.1c0.4-2.3,0.8-4.7,1.2-7.1c0.2-1.2,0.6-2.3,0.8-3.5
		c0.4-1.9,0.8-3.8,1.2-5.7s1-3.9,1.4-5.9c0.3-1.4,0.4-2.9,0.8-4.2c0.7-2.3,1.1-4.7,1.6-7.1c0.4-2,0.7-4,1.1-6c0.5-2.4,1-4.8,1.4-7.2
		c0.2-1.3,0.3-2.7,0.5-4c0.6-3.6,1.3-7.2,1.9-10.8s1.4-7,2.1-10.5c0.1-0.5,0.5-1,0.4-1.5c0-1.2,0.2-2.4,0.5-3.5
		c0.1-0.5,0.2-1,0.4-1.5c0.4-1,0.7-2,0.8-3.1c0.1-0.4,0.1-0.8,0.2-1.2c0.2-0.6,0.3-1.2,0.3-1.8c-0.2-1.9,0.8-3.5,1-5.3
		c0-0.2,0.3-0.4,0.4-0.6c0.2-0.4,0.4-0.8,0.6-1.2c0-0.9-0.4-1.8-0.9-2.6l0,0c-0.5-0.6-1.3-0.6-1.6,0.1c-0.3,0.8-0.5,1.7-0.6,2.5
		c-0.2,0.9-0.2,1.9-0.3,2.8c0,0.1-0.1,0.2-0.1,0.3c-0.9,1-0.8,2.3-0.9,3.5c-0.1,1.8-0.8,3.5-1,5.4c0,0.4-0.3,0.7-0.4,1.1
		c-0.3,1.5-0.5,3-0.8,4.6s-0.4,2.9-0.6,4.4c0,0.3-0.2,0.7-0.3,1c-0.4,2.1-0.9,4.1-1.3,6.2c-0.2,1.2-0.2,2.5-0.4,3.7
		c-0.2,1.5-0.5,2.9-0.7,4.3c-0.4,2.2-0.7,4.4-1.1,6.6c-0.4,2.4-0.9,4.9-1.3,7.3c-0.1,0.6-0.4,1.1-0.4,1.7c-0.2,2.1-0.5,4.2-1,6.2
		c-1,3-1.1,6.3-2,9.3c-0.7,2.3-1,4.6-1.6,7C30.9,260.1,30.2,263.3,29.5,266.5z"/>
	<path d="M22.1,222c0.2-0.5,0.4-1,0.4-1.6c0-1.1,0.3-2.2,0.7-3.2c0.2-0.3,0.3-0.7,0.3-1c0.1-1.3,0.4-2.6,0.6-3.9
		c0.6-3.4,1.2-6.8,2.1-10.2c0.4-1.6,0.6-3.2,0.9-4.8c0.3-1.6,0.6-3.5,0.9-5.2c0.5-2.1,0.5-4.4,1.2-6.4c0.2-0.6,0.3-1.2,0.1-1.8
		c-0.1-0.2-0.1-0.4,0-0.6c0.4-1.2,0.8-2.4,1.2-3.6c0.3-0.9,0.6-1.7,0.8-2.6c0.4-1.6,0.7-3.2,1.1-4.8c0.1-0.6,0-1.3-0.3-1.8
		c-0.1-0.5-0.6-0.8-1.1-0.8c-0.5,0-1,0.4-1.1,0.9c-0.1,0.3-0.2,0.6-0.2,0.9c-0.4,2.4-0.6,4.8-1.1,7.1c-0.3,1.3,0,2.8-1,3.9
		c0,0,0,0.2,0,0.2c-0.5,2-0.3,4.2-0.9,6.2c-0.4,1.3-0.6,2.7-0.8,4c-0.2,0.5-0.3,1.1-0.4,1.6c-0.2,2.2-0.6,4.4-1.2,6.6
		c-0.2,0.7-0.2,1.5-0.4,2.2c-0.4,1.9-0.9,3.8-1.3,5.7s-0.7,3.5-1,5.3c-0.2,1.1-0.6,2.2-0.8,3.4c-0.6,3.1-1.2,6.2-1.8,9.4
		c-0.1,0.5-0.1,1-0.2,1.5c-0.2,2.3-0.4,4.5-0.6,6.8c0,0.6-0.1,1.1-0.2,1.9c0,0.1,0.2,0.4,0.5,0.6v0c0.3,0.2,1.1-0.2,1.2-0.7
		c0.2-0.5,0.3-1.1,0.4-1.6c0.1-0.7,0.2-1.4,0.3-2.1c0.2-1.3,0.5-2.7,0.7-4c0.1-0.4,0-0.9,0.1-1.3c0.2-1.3,0.4-2.6,0.6-3.9
		c0-0.1,0-0.2,0-0.4C21.4,223.3,21.8,222.7,22.1,222z"/>
	<path d="M155.6,275.3c-0.4,1.1-0.8,2.2-1.3,3.3c-0.3,0.8-0.6,1.6-0.6,2.4c-0.1,0.6-0.2,1.3-0.2,1.9c0,0.3,0,0.6,0.1,1l0.4,0
		c0.3-0.4,0.5-0.9,0.7-1.3c0.2-0.7,0.4-1.4,0.6-2.2c0.2-1,0.4-2,0.6-3c0.1-0.5,0-1,0.3-1.5C156.3,275.6,156.1,275.4,155.6,275.3z"/>
	<path d="M188.2,140.7c0.4-1.3,0.6-2.6,1.5-3.7c0.1-0.2,0.2-0.4,0.3-0.7c0.8-2,1.6-4.1,2.3-6.1c0.5-1.6,1.1-3.1,1.8-4.5
		c0.6-0.8,0.4-2-0.4-2.6c0,0,0,0,0,0c-0.7-0.1-0.9,0.4-1.1,0.9h0c-0.7,1.7-1.3,3.3-1.9,5c-0.8,1.9-1.3,3.8-2.1,5.7
		c-1.1,2.4-2.1,4.7-3,7.1c-0.8,1.9-1.4,3.9-2,5.9c-0.4,1.3-0.9,2.5-1.3,3.8c-0.1,0.4-0.2,0.8-0.2,1.3c0,0.4,0.3,0.7,0.6,0.7
		c0.2,0,0.4-0.1,0.5-0.2c0.3-0.3,0.5-0.7,0.7-1.1c0.9-2.2,1.7-4.5,2.5-6.7C186.9,143.8,187.6,142.2,188.2,140.7z"/>
	<path d="M217.9,122c0.3-0.7,0.6-1.1,0.7-1.6c0.2-0.4,0.3-0.8,0.3-1.2c0-0.3-0.4-0.9-0.6-0.9c-0.4,0-1,0.3-1.1,0.5
		c-0.3,1-0.9,1.9-0.8,3.1L217.9,122z"/>
	<path d="M192.8,142.3c0.5-1.3,1-2.6,1.5-3.9c0.5-1.1,1-2.2,1.5-3.4c0.2-0.5,0.3-1,0.5-1.5c0.7-1.9,1.6-3.8,2.2-5.8
		c0.4-1.3,1.3-2.4,1.5-3.8c0-0.1,0.1-0.2,0.2-0.3c1.1-1.7,1.6-3.6,2.5-5.4c0.4-0.7,0.1-1.2-0.8-1.7c-1,1.1-1.8,2.3-2.3,3.6
		c-0.6,1.2-1.1,2.5-1.5,3.8c-0.3,0.9-0.6,1.8-1,2.7c-0.5,1.1-1.1,2.2-1.5,3.3c-0.8,2.3-1.5,4.7-2.3,7c0,0.2-0.1,0.3-0.1,0.5
		c-0.1,1-0.4,2-1,2.9c-0.8,1.4-1.7,2.7-2.4,4.1c-0.7,1.4-1.3,2.8-1.9,4.2c-0.6,1.4-1.2,3.2-1.8,4.8c-0.6,1.6-1.2,3.3-1.8,4.9
		c-0.2,0.4-0.3,0.8-0.3,1.1c0,0.2,0,0.5,0.1,0.7c0.4,0.6,1,0.5,1.5-0.2c0.9-1.9,1.7-3.8,2.4-5.7c1.2-2.9,2.4-5.8,3.6-8.7
		C191.9,144.5,192.3,143.4,192.8,142.3z"/>
	<path d="M0,0v435.6h248.6V0H0z M3.4,2.2h24.4h17.8c0.8,0,1.6-0.1,2.5,0c0.3,0.1,4.3,0.1,5,0c0.7,0,1.4,0.1,2.1,0.1
		c0.5-0.1,1,0,1.5,0.1c0.6,0.2,1.2,0.3,1.8,0.2c1.2,0.1,2.4,0.2,3.9,0.4c-0.6,0.5-1.2,1-1.7,1.5c-1,1-2,2.1-2.8,3.2
		c-1.6,2.2-2.9,4.6-3.9,7.2c-0.5,1.2-0.6,2.6-0.2,3.8c0.6,2,1.3,3.9,2.2,5.8c0.1,0.1,0.2,0.3,0.3,0.4c1.1,1.1,2.5,1.9,4,2.3
		c1,0.2,2,0.4,3,0.7c0.1,0,0.2,0.2,0.3,0.5c-0.2,0.3-0.4,0.7-0.6,0.9c-1.4,1.3-2.1,3-3.4,4.4c-1.2,1.5-1.6,3.3-2.6,4.9
		c-0.2,0.5-0.3,1-0.4,1.5c-0.6,1.9-1.2,3.8-1.7,5.7c-0.3,1.1-0.4,2.3-0.2,3.4c0.1,1,0.1,2-0.1,3c-0.2,1.9-0.1,3.8,0.1,5.7
		c0.1,0.6,0.1,1.1,0.2,1.7c0,1.6,0.4,3.1,1.1,4.5c0.7,1.4,1.3,3,2,4.4c0.3,0.7,0.7,1.5,1.1,2.1c0.4,0.7,0.8,1.3,1.2,2
		c0.2,0.4,0.4,0.8,0.8,1.1c0.4,0.2,0.6,0.6,0.6,1.1c0.1,0.4,0.3,0.8,0.5,1.2c0.9,1.4,1.7,2.8,2.7,4c0.7,0.9,1.6,1.7,2.5,2.4
		c1.9,1.3,3.8,2.5,5.8,3.7c0.9,0.4,1.8,0.9,2.6,1.4c0.9,0.7,1.9,1.2,2.9,1.5c2,0.5,3.8,1.9,6.1,1.4c0.8-0.2,1.1,0.5,1.3,1
		c0.6,1.2,1.2,2.3,1.8,3.5c1,2,2.4,3.8,2.9,6.1c0.2,1,0.5,2.1,0.8,3.1c0,0.2,0,0.5,0,0.7c-0.2,2.2-0.2,4.4-0.5,6.5
		c-0.2,1.6-0.6,3.1-1.2,4.6c-0.6,1.7-1.4,3.3-2.1,5c-0.1,0.1-0.1,0.2-0.2,0.3c-0.9,1-1.7,2-2.6,2.9c-0.3,0.3-0.7,0.5-1.2,0.5
		c-1.1,0-1.5,0.9-2.2,1.5c-0.1,0.1,0,0.5-0.1,0.7c-0.2,0.6-0.4,1.1-0.6,1.7c-0.1,0.1-0.2,0.3-0.3,0.3c-1-0.1-1.4,0.8-2,1.3
		c-0.9,0.8-1.4,0.8-2-0.3c-0.7-1.1-1.2-2.1-1.9-3.2c-0.4-0.6-0.8-1.1-1.1-1.7c-0.3-0.4-0.5-0.8-0.6-1.3c-0.3-1.1-0.8-2.1-1.6-2.8
		c-0.8-0.9-0.9-1.2-0.1-2.1c0.3-0.5,0.5-1,0.5-1.6c0.2-1.2,0.2-2.4,0-3.6c-0.2-0.1-0.2-0.2-0.3-0.2c-1.2-0.2-1.6-0.5-1.7-1.7
		c-0.1-0.6-0.2-1.3-0.3-1.9c-0.1-0.7-0.5-1.3-1.1-1.6c-0.8-0.5-0.8-0.8-0.5-1.6c0.3-0.7,0.4-1.6,0.1-2.3c-0.4-1-0.1-1.1,0.8-1.4
		c0.9-0.4,1.9-0.9,2.8-1.4c0.3-0.2,0.6-0.4,0.9-0.5c0.5-0.2,1.1-0.4,1.7-0.6c0.3-0.2,0.7-0.3,1.1-0.3c0.4,0,1-0.5,1.4-1
		c0.2-0.3,0.3-0.7,0.1-1c-0.3-0.7-0.8-1.9-1.1-2.4c-0.7-1.2-1.1-2.5-1.4-3.8c-0.6-1.9-1.4-2-3.2-2c-1,0-2,0.4-2.8,1.1
		c-0.8,0.8-1.7,1.5-2.6,2.1c-1.2,0.8-2.5,1.5-3.7,2.3c-0.1,0-0.1,0.1-0.2,0.1c-0.4,0.1-0.8-0.1-0.9-0.4c-0.2-0.3-0.3-0.5-0.5-0.8
		c-1.5-3.1-3.5-5.9-5.9-8.3c-0.8-1-1.5-2.1-2.2-3.3c-0.8-1.1-1.5-2.3-2.3-3.3c-0.5-0.4-1-0.8-1.6-1.1c0.2-0.5,0.4-1,0.7-1.6
		c0.4-0.7,0.6-1.6,0.3-2.4c-0.2-0.6-0.2-1.3-0.4-2c-0.4-1.7-1.7-3.2-3.3-3.8c-0.2-0.1-0.4-0.2-0.6-0.3c-0.7-0.6-1.7-0.9-2.7-0.7
		c-0.6,0.1-1.2,0-1.8,0c-1.4-0.1-2.7,0.7-3.3,2c-1.1,2.2-1.4,4.6-0.8,7c0.3,1.4,1,2.9,2.9,3c0.7,0,0.8,0.4,1,1
		c0.2,0.6,0.4,1.3,0.7,1.9c0.1,0.2,0.2,0.4,0.2,0.5c-0.1,1.7,1.1,3,1.2,4.6c0.9,1.9,1.2,4,1.9,5.9c0.3,0.7,0.6,1.3,0.9,1.9
		c0.5,0.9,0.8,2,0.8,3c0.1,0.6,0.3,1.1,0.6,1.5c0.3,0.4,0.5,1,0.5,1.5c0,0.3,0.2,0.6,0.4,0.8c0.5,0.5,0.5,0.6-0.2,1
		c-1.5,0.8-3.1,1.6-4.7,2.3c-0.5,0.3-1.1,0.5-1.6,0.7c-0.5,0.2-1,0.4-1.5,0.5c-1.6,0.3-3.2,0.9-4.7,1.7c-0.1,0.1-0.3,0.1-0.5,0.2
		c0,0.6-0.1,1.1-0.1,1.7c0,0.2,0.1,0.4,0.3,0.6c0.7,0.4,0.9,1.1,1,1.8c0.2,1.3,0.9,2.4,1.9,3.2c0.2,0.1,0.3,0.3,0.4,0.4
		c0.5,0.9,1.4,1.5,2.4,1.6c0.9,0.2,1.8-0.1,2.5-0.8c0.7-0.7,1.4-1.4,2.2-2c1.3-1,2.6-1.8,4.1-2.5c0,0,0.1,0,0.1-0.1
		c0.5-0.3,1.1-0.1,1.4,0.3c0.2,0.3,0.5,0.6,0.9,0.8c1.4,0.7,2,2,2.6,3.3c0.3,0.7,0.8,1.2,1.5,1.4c0.5,0.1,0.9,0.5,1,0.9
		c0.5,1.3,1.1,2.4,2,3.5c0.6,0.8,1.1,1.8,1.4,2.8c0.3,0.8,0.6,1.7,0.9,2.5c0.6,1.4,1.4,2.7,2.5,3.7c0.7,0.6,1.2,1.3,1.4,2.1
		c0.1,0.4,0.3,0.7,0.5,1.1c0.4,0.8,0.8,1.6,1.2,2.3c-0.6,0.1-3.6,1.1-3.8,1.2c-0.9,0.3-1.9,0.5-2.9,0.4c-1.4,0-2.8,0.1-4.2,0.2
		c-1.5,0.1-3.1-0.1-4.6-0.4c-1.6-0.3-3.1-1-4.7-1.3c-0.4-0.1-0.8-0.2-1.2-0.4c-0.2-0.1-0.4-0.1-0.5-0.1c-0.5,0.1-0.9,0.6-0.8,1.1
		c0,0.2,0,0.4,0,0.6c0,0,0,0,0,0.1c0,0.8-0.7,1.5-1.5,1.5c-1.1,0-1.5,0.8-1.9,1.6c-0.1,0.1-0.1,0.3-0.1,0.5
		c-0.2,2.6-1.8,4.3-3.7,5.7c-0.1,0.1-0.3,0.1-0.3,0.2c-0.4,1.1-1.5,1.3-2.4,1.6c-1.3,0.5-2.6,0.8-3.9,0.9c-0.8,0-1.6,0.4-2.1,1
		c-0.9,1.3-2.3,2.2-3.9,2.4c-0.4,0.1-0.8,0.3-1.2,0.5c-0.3,0.1-0.7,0.2-1,0.2c-0.7-0.1-1.5,0-2.2,0.4c-0.5,0.2-1,0.3-1.5,0.1
		c-0.9-0.3-1.8-0.4-2.7-0.7c-1.2-0.4-2.3-1-3.3-1.6c-2.2-1.6-4.1-3.3-5.9-5.3c-0.6-0.7-1.4-1.3-2.3-1.6c-0.8,2-0.4,2.9,1.5,3.7
		c0.2,0.1,0.4,0.1,0.5,0.3c0.9,0.9,1.7,1.7,2.5,2.7c0.9,1.2,2,2.2,3.2,3c1.6,1,3.3,2,5,2.8c1.3,0.6,2.8,0.8,4.3,0.7l4.7-0.5
		c0.2-0.1,0.4-0.2,0.6-0.3c0.5-0.2,0.9,0.1,0.7,0.5c-0.3,0.9-0.3,1.8-0.1,2.7c0.1,0.6-0.3,1.1-0.8,1.3c-0.6,0.3-1.1,0.8-1.2,1.5
		c-0.1,1-0.4,1.9-1,2.8c-0.1,0.1-0.1,0.2-0.1,0.3c-0.1,1.9-0.5,3.9-1.1,5.7c-0.1,0.5-0.1,1-0.2,1.4c-0.4,2.1-0.9,4.2-1.3,6.3
		c-0.3,1.5-0.4,3-0.7,4.5c-0.4,2.4-0.9,4.8-1.4,7.3c-0.3,1.8-0.6,3.6-1,5.5c-0.4,1.9-0.8,3.8-1.2,5.7c-0.3,1.7-0.4,3.5-0.7,5.2
		c-0.3,2.2-0.8,4.3-1.2,6.5c-0.7,4-2.1,7.8-2.3,12c0,0.3-0.1,0.6-0.2,0.9c-0.2,1.2-0.5,2.5-0.7,3.8c0,0.3-0.1,0.5-0.2,0.8
		c-0.2,0.8-0.4,1.6-0.5,2.4c-0.3,1.3-0.6,2.7-0.8,4c-0.5,3.3-0.9,6.7-1.4,10.1c-0.4,2.9-0.9,5.7-1.4,8.6c0,0.2,0,0.5,0,0.6
		c0,1.1-0.2,2.2-0.7,3.2c-0.2,0.6-0.2,1.3-0.3,2c-0.2,1-0.4,2-0.6,3c-0.1,0.6-0.2,1.1-0.3,1.6c-0.2,0.9-0.3,1.8-0.5,2.7
		c-0.1,0.6-0.2,1.2-0.2,1.8c0,1.8-0.1,3.6-0.5,5.3c-0.1,0.7-0.2,1.3-0.2,2c0,0.9-0.2,1.7-0.4,2.5c-0.3,1.5-0.6,3.1-0.7,4.7
		c-0.1,0.7-0.2,1.3-0.5,2C2.2,193.8,2.1,98.1,2.1,2.2C2.5,2.2,3,2.2,3.4,2.2z M92.3,94.1c0.7,1.7,1.6,3.4,2.9,4.8
		c0.8,1.2,1.9,2.1,3.2,2.8c0.8,0.4,1.6,0.7,2.4,1c0.9,0.3,1.8,0.6,2.7,0.9c0.2,0.2,0.3,0.5,0.3,0.8c-0.1,0.7-0.4,1.5-0.5,2.2
		c-0.3,1.1-0.5,2.2-0.8,3.2c-0.2,0.9-0.5,1.8-0.7,2.6c-0.3,1.8-1,3.5-1.3,5.3c-0.2,1.6-0.8,3.2-1.1,4.8c-0.5,2.1-1.2,4.2-1.7,6.3
		c-0.5,2.5-1.4,4.8-1.8,7.3c-0.3,1.8-1.3,3.3-1.5,5.1c-0.1,0.4-0.1,0.8-0.1,1.2c0.1,0.5,0.5,0.7,1,0.3c0.7-0.7,1.2-1.5,1.4-2.5
		c0.3-1,0.5-2,0.8-3c0.6-2.6,1.2-5.2,1.9-7.9c0.2-1.4,0.6-2.8,1.1-4.1c0.1-0.3,0.2-0.6,0.2-0.9c0.4-1.4,0.7-2.8,1-4.2
		s0.6-2.8,0.9-4.2c0.4-1.8,0.9-3.6,1.4-5.4c0.6-2.3,1.2-4.6,1.7-6.8c0.3-0.1,0.3-0.2,0.4-0.2c1.2,0.1,2.5-0.2,3.4-1
		c0.6-0.4,1.2-0.6,1.8,0c0.3,0.3,0.8,0.3,1.1,0.1c0.3-0.1,0.6-0.2,0.9-0.3c0.4-0.1,0.9,0.2,1,0.6c0.5,1.1,0.7,2.3,0.7,3.5
		c0,2,0.1,3.9,0.1,5.9c0,0.2-0.1,0.4-0.1,0.6c-0.1,0.8-0.1,1.5-0.1,2.3c0,1.7,0.2,3.5,0.2,5.2c0,2.3-0.2,4.6-0.3,6.9
		c0,0.5,0.1,1,0.1,1.5c0,2.7,0.1,5.4,0.1,8.1c0,1.1,0.1,2.2,0.1,3.2c0,2.7-0.2,5.3-0.2,8c0,1,0,2,0,3c-0.1,2-0.2,4-0.4,6.1
		c-0.7-0.4-1.3-0.6-1.9-1c-0.7-0.5-1.4-1-2.1-1.5c-1-0.7-2.1-1.4-3.2-1.9c-1.2-0.5-2.4-0.9-3.6-1.3c-0.7-0.3-1.5-0.5-2.2-0.7
		c-1-0.2-2.2-0.4-3.2-0.6c-0.4-0.1-0.8-0.2-1.1-0.3c-0.3-0.1-0.5-0.2-0.8-0.1c-1,0.2-2.1,0.2-3.1,0c-0.8,0-1.6,0-2.4,0
		c-0.2,0-0.5,0-0.6-0.1c-0.7-0.6-1.4-0.2-2,0.1c-1.4,0.7-1.8,0.6-2.5-0.8c-0.6-1.2-1-2.4-1.6-3.6c-0.5-0.9-1-1.7-1.5-2.6
		c-0.3-0.5-0.5-1.1-0.8-1.7c-0.4-0.9-0.8-1.8-1.3-2.6c-0.4-0.9-0.9-1.8-1.3-2.7c-0.2-0.4-0.4-0.9-0.6-1.3c-0.5-1.1-0.4-1.5,0.7-2.1
		c0.7-0.4,1.4-0.7,2.2-1c1.2-0.4,2.1-1.2,2.5-2.3c0.3-0.7,0.8-1.2,1.5-1.6c1.3-0.7,2.4-1.7,3.3-2.9c0.4-0.6,0.8-1.2,1.2-1.8
		c1.2-1.9,2.2-4,3-6.2c0.5-1.3,0.8-2.7,0.8-4.2c0-0.5,0.1-1,0.2-1.5c0.3-1.2,0.4-2.5,0.3-3.7c-0.1-0.8-0.1-1.5,0-2.3
		c0-1.1-0.2-2.1-0.7-3.1c-0.1-0.1-0.1-0.3-0.2-0.5c0.1-1.4-0.6-2.5-1.3-3.7c-0.8-1.5-1.6-3.1-2.4-4.7c-0.2-0.4-0.5-0.7-0.8-1.1
		c-0.2-0.3-0.4-0.7-0.7-1.3c0.4,0,0.8,0,1.2,0c0.5,0,1-0.2,1.4-0.2c0.4,0,0.9-0.1,1.1,0.1c0.2,0.3,0.3,0.7,0.2,1.1
		C91.9,92.6,91.9,93.4,92.3,94.1z M124.8,73.9c0.3,1.1-0.1,1.5-1.3,1.3c-0.8-0.1-1.7-0.1-2.5,0c0-0.7-0.4-1.2-1.1-1.4
		c-0.3-0.1-0.6-0.5-0.9-0.9l-1.4,0.5c0-0.3-0.1-0.7,0-0.9c0.3-0.2,0.6-0.4,0.9-0.4c0.6,0,1.2,0.2,1.8,0.2c0.4,0,0.8-0.1,1.2-0.2
		c-0.2-0.2-0.5-0.5-0.8-0.7c-0.3-0.2-0.8-0.3-1-0.6c-0.1-0.2-0.2-0.3-0.4-0.4c-0.5-0.3-1.1-0.1-1.4,0.4c-0.2-0.2-0.3-0.4-0.5-0.6
		c-0.3-0.8,0-1.1,0.8-1.1c0.6,0,1.1,0,1.7,0c0.2,0,0.6-0.2,0.7-0.4c0.1-0.3,0-0.6-0.2-0.8c-0.5-0.7-1.4-1-2.3-0.8
		c-0.4-0.9-0.3-1.1,0.5-1.1c0.5,0,0.9,0,1.4,0c0.5-1.4,0.2-1.8-1.6-2c-0.1-0.3-0.2-0.6-0.2-0.9c0.1-0.7,0.3-0.9,1.1-0.9
		c0.3,0,0.7-0.1,1-0.1c0.3-1.5,0.1-1.8-1.3-2.1c-0.3-1.1-0.1-1.6,0.8-1.7c0.5-0.1,0.9-0.1,0.9-0.7c0,0,0-0.1,0-0.1c0-0.6-0.5-1-1-1
		c-0.1,0-0.2-0.1-0.3-0.1c-0.2-0.5-0.2-0.9,0.4-1.1l2.3-0.7c0.8,0.7,1.2,1.8,1,2.9c0,0.8,0.2,1.6,0.5,2.4c0.4,1.3,0.7,2.6,0.8,4
		c0.2,1.9,0.4,3.8,0.5,5.7c0,0.5,0,1-0.2,1.5C124.6,72.2,124.6,73.1,124.8,73.9z M122.9,52.7c-0.4,0.5-1.2,0.8-1.8,0.6
		c-0.5-0.1-0.9-0.2-1.4-0.2c-1.2-0.2-2.2-0.9-2.9-1.9c-0.4-0.5-0.4-1.5-0.5-2.2l0,0c0-1.1,0.3-2.3,1-3.2c0.6-0.7,1.2-1.2,2-1.7
		c0.2-0.1,0.5-0.1,0.7,0c0.7,0.2,1.4,0.5,2,0.8c0.7,0.3,1.2,1.1,2.2,1.1c0.3,0,0.6,0.6,0.8,0.9c0.3,1,0.2,2.2-0.2,3.2
		C124.3,51.1,123.7,52,122.9,52.7z M119,77.7c2,0,4.2,0.1,6.1,0c1.9-0.1,3.8,0.3,5.7-0.4c0.3-0.1,0.7-0.1,1.1,0
		c1.7,0.4,3.3-0.1,5-0.2c0.2,0,0.4-0.2,0.6-0.1c1.2,0.3,2.4,0.2,3.5-0.2c0.1,0,0.3,0,0.4,0.1l0,0c0.3,0.7,0.4,1.5,0.3,2.3
		c0,0.8,0,1.6,0.1,2.4c0,0.3,0,0.7,0,1c0,0.1,0,0.1,0,0.2c-0.2,0.5-0.6,0.7-1.1,0.5c-0.5-0.1-1-0.2-1.5-0.4c-2-0.4-4-0.9-6-1.3
		c-0.7-0.1-1.3-0.2-2-0.2l-5.2-0.4c-0.8-0.1-1.6-0.2-2.5-0.3c-0.2,0-0.4,0-0.6,0c-2.1,0.3-4.2,0-6.2,0.4c-1.4,0.2-2.8,0-4.2,0.1
		c-2.6,0.2-5.2,0.2-7.6,1.2c-0.1,0.1-0.3,0.1-0.5,0.1c-1.1,0.3-1.5,0-1.5-1.1c0-1.4,0-2.7,0-4.1c0-1,0.7-1.5,1.7-1.1
		c0.4,0.1,0.8,0.2,1.1,0.3c2,0.1,4,0.3,6,0.8c0.3,0.1,0.6,0.2,0.9,0.2c1.4-0.2,2.9-0.1,4.3,0.2C117.5,77.7,118.3,77.7,119,77.7z
		 M129.9,115.3c0.8,1.5,1.7,2.9,2.7,4.3c1.2,1.5,2.6,2.7,4.3,3.5c1.5,0.7,3,1.3,4.6,1.7c0.5,0.1,1.1,0.2,1.6,0.2
		c0.6,0.1,1.2,0.2,1.9,0.2c0.4,0.1,0.9,0.1,1.3,0c1.2-0.3,2.5-0.5,3.8-0.4c0.4,0,0.8,0,1.2-0.2c2.1-0.7,4.4-0.8,6.5-0.1
		c1.4,0.3,8.6,0.3,10.4-0.2c0,0,2.2-0.9,3.3-1.4c0.3-0.1,1.2-0.5,2.1-1c0,0.1,0,0.3,0.1,0.4c-0.4,0.5-0.8,1-1.1,1.5
		c-0.6,1.3-1.7,2.3-1.7,3.9c0,0.1,0,0.2-0.1,0.2c-0.5,0.8-1,1.5-1.5,2.3c-0.3,0.4-0.5,0.8-0.6,1.2c-0.1,0.6-0.5,1.2-1,1.6
		c-0.6,0.4-0.9,1-1.1,1.7c-0.2,0.7-0.5,1.4-1,2c-0.5,0.6-0.8,1.3-0.9,2c-0.3,1.6-1.2,2.8-1.9,4.2c-0.3,0.6-0.5,1.2-0.5,1.8
		c0,0.5-0.2,1-0.6,1.3c-0.6,0.7-1.2,1.5-1.7,2.4c-0.2,0.3-0.3,0.6-0.5,1c-0.5-0.6-1.3-0.9-2.1-0.7c-0.8,0-1.6-0.1-2.4-0.2
		c-0.9-0.1-1.1,0-1.4,0.8h-3.4c-2,0.2-4,0.5-5.9,0.8c-2.1,0.5-4.1,1.2-6,2.2c-0.1,0-0.2,0.1-0.3,0.2c-1.7,1.4-3.8,2-5.6,3.1
		c-1.4,1-2.7,2-4,3.2c-0.3,0.2-0.3,0.6-0.6,1s-0.6,0.7-1.1,0.5s-0.5-0.6-0.5-1c-0.1-1.3-0.2-2.8-0.2-4.1c0-1.3,0.1-2.5,0.2-3.8
		c0.1-2.5,0.1-4.9,0-7.4c0-0.5,0-1,0-1.5c0-0.8-0.2-1.6-0.2-2.4c0-0.6,0-1.2,0.1-1.8c0.2-1.1,0.2-2.3-0.1-3.4
		c-0.1-0.8-0.2-1.6-0.2-2.4c0-1.5,0-2.9,0.1-4.4c0-2.5,0.2-5.1,0.5-7.6c0.3-1.6,0.3-3.2,0-4.7c-0.1-0.5-0.1-1,0-1.5
		c0.2-0.7,0.2-1.5,0.1-2.2c0-0.4,0.1-0.8,0.4-1.1c0.1-0.2,0.3-0.3,0.5-0.3c0.4,0,0.7,0.2,0.7,0.6c0.1,0.8,0.1,1.6,0.9,2.1
		C129,114.2,129.6,114.7,129.9,115.3z M178,95.8c0.4,0.1,0.7,0.5,1.1,0.8c1.1,0.7,2.3,1.5,3.4,2.2c0.4,0.1,0.8,0.2,1.2,0.1
		c0.8-0.1,1.5,0.2,2,0.8c-0.1,0.1-0.1,0.1-0.1,0.2c-0.1,0.3,0.1,0.6,0.4,0.7l3.3,1.5c1.6,0.7,3.1,1.4,4.6,2.1
		c1.2,0.7,2.5,1.2,3.9,1.6c0.2,0,0.5,0.1,0.7,0.2c1.6,1.4,3.7,1.8,5.5,2.8c0.7,0.4,1.7,0.4,2.3,0.9c1,0.7,2.2,1.2,3.5,1.3
		c0.2,0,0.3,0.1,0.4,0.2c0.3,0.3,0.3,0.8,0,1.1c-0.9,1-1.5,2.1-1.8,3.4c-0.1,0.7-1.2,0.8-1.8,0.3c-0.8-0.7-1.7-1.3-2.7-1.8
		c-1.1-0.6-2.2-1.4-3.4-2c-1.4-0.8-2.7-1.7-4-2.4c-1-0.6-2-1.3-3-1.9c-0.9-0.5-1.8-0.8-2.7-1.2c-0.5-0.3-1-0.6-1.5-0.9
		c-1.6-1-3.2-1.7-5-2.2c-0.8-0.3-1.5-0.6-2.3-1c-0.8-0.4-1.5-0.7-2.3-1c-0.5-0.2-0.9-0.6-1.4-0.8c-1.2-0.6-2.3-1.2-3.5-1.8
		c-0.6-0.2-1.2-0.4-1.9-0.5c-0.6-0.2-0.8-0.5-0.4-1c0.7-1.1,1.5-2.2,2.2-3.3c0.1-0.1,0.3-0.3,0.5-0.4l0,0
		C175.8,94.7,176.8,95.4,178,95.8z M192.6,98.7c-0.2-0.2-0.5-0.3-0.8-0.3c-1.2-0.1-1.3-0.2-0.6-1.5c0.5,0.3,1.1,0.5,1.6,0.8
		c0.3,0.2,0.6,0.4,0.9,0.5c0,0,0.1,0,0.1,0c0.4,0.2,0.8,0,1-0.4c0,0,0,0,0,0c0.1-0.4-0.1-0.8-0.5-0.9c-0.8-0.4-1.4-1-1.9-1.8
		c0.4-0.2,0.9-0.1,1.3,0.2c0.4,0.3,0.9,0.5,1.3,0.7c0,0,0.1,0,0.1,0c0.3,0.1,0.7-0.1,0.8-0.4c0.2-0.4-0.1-0.7-0.5-0.8
		c-1-0.3-1.2-1.3-1.9-2c1.2-0.3,2,1,3.1,0.2c0.2-0.6,0-0.8-0.5-1c-1.1-0.4-1.3-1.1-0.7-2.1c0.5-1.1,1.2-2.1,2.1-2.9
		c0.2-0.2,0.4-0.5,0.5-0.8c0.2-0.2,0.3-0.6,0.5-0.6c0.8-0.4,1.2-1.2,1.2-2c0-0.4,0.3-0.8,0.7-0.8c0.7-0.1,1.3-0.2,2-0.2
		c0.2,0,0.3,0,0.4,0.1c0.5,0.3,0.7,0.9,0.4,1.4c-0.2,0.4-0.2,0.8,0,1.2c0.3,0.6,0.2,1.4-0.3,1.9c-0.2,0.3-0.4,0.6-0.4,1
		c-0.1,1.5-0.5,2.9-1.2,4.2c-0.3,1.2-0.7,2.3-1.2,3.4c-0.8,1.3-0.9,2.9-2.2,4c-0.4,0.4-0.6,1.1-0.8,1.7c-0.5,1.2-1.1,1.4-2.3,0.9
		c-1.5-0.7-3.1-1.3-4.7-2c-0.5-0.2-0.9-0.5-1.3-0.8c0.4-0.1,0.6-0.3,0.7-0.2c0.6,0.1,1.2,0.3,1.7,0.5c0.3,0.2,0.7,0.4,0.9,0.7
		c0,0,0,0,0,0c0.4,0.5,1.2,0.5,1.6,0C193.5,100,193.1,99.3,192.6,98.7z M202.1,75.1c0-0.6,0-1.2,0.2-1.8c0.4-1.4,1.5-1.5,2.8-1.4
		c1.1-0.2,2,0.5,3,0.8c1.1,0.3,1.9,1.1,2.4,2.1c0.6,1.1,0.5,2.4-0.3,3.4c-0.2,0.2-0.5,0.4-0.8,0.5c-1.1,0.4-2.2,1-3,1.9
		c-0.3,0.3-0.6,0.5-1,0.6c-0.8,0.4-1.1,0.1-1.5-0.5c-0.4-0.6-0.8-1.2-1.2-1.8c-0.7-0.8-0.8-1.9-0.5-2.9
		C202.3,75.8,202.1,75.4,202.1,75.1z M193.3,112.5L193.3,112.5c-0.5-0.3-1-0.7-1.5-1c-0.8-0.4-1.6-0.8-2.3-1.1l-2.5-1.1
		c-0.9-0.4-1.9-0.8-2.8-1.3c-0.2-0.1-0.4-0.2-0.5-0.4c-0.5-0.6-0.4-1.5,0.2-2c0.2-0.2,0.4-0.2,0.6-0.2c0.5,0.1,1,0.3,1.5,0.5
		c0.4,0.2,0.8,0.4,1.3,0.6c0.3,0.1,0.5,0.2,0.8,0.3c1.1,0.7,2.2,1.3,3.3,2c0.3,0.2,0.7,0.3,1.1,0.5c0.6,0.3,1.1,0.7,1.6,1.1
		C194.6,111,194.3,111.6,193.3,112.5z M182.7,109.5c0.8,0.2,1.6,0.5,2.4,0.7c0.6,0.1,1.1,0.3,1.6,0.8c0.2,0.1,0.3,0.2,0.5,0.3
		c1.2,0.5,2.5,1,3.5,1.4s1.2,0.9,0.6,1.9c-0.4,0.6-0.8,1-1.2,1.6c-0.7,1-1.4,2-2.1,3c-0.2,0.2-0.3,0.5-0.5,0.7v0
		c-0.4-0.3-0.7-0.5-1-0.6c-1.3-0.7-2.6-1.4-3.9-2c-0.9-0.5-1.9-0.8-2.9-1.2c-0.6-0.2-0.8-0.7-0.4-1.2c0.8-1.4,1.4-2.9,1.8-4.4
		C181.4,109.5,181.9,109.3,182.7,109.5z M182.3,119.1c0,0,0.8,0.6,1.5,0.7c0.5,0.1,1,0.2,1.5,0.5c0.4,0.1,0.7,0.4,0.9,0.7
		c0.1,0.3,0.1,0.6-0.1,0.9c-0.3,0.2-0.6,0.3-1,0.3c-0.6-0.2-1.1-0.4-1.6-0.8c-1.1-0.6-2.2-1.4-3.4-2c-0.5-0.3-1-0.5-1.5-0.7
		c-0.2-0.1-0.4-0.1-0.5-0.3c-0.1-0.2-0.2-0.5-0.2-0.7c0-0.1,0.5-0.2,0.6-0.2C179.8,118,181,118.5,182.3,119.1z M183.1,129
		c-0.2,0.2-0.3,0.5-0.5,0.6c-1.2,0.6-2.1,1.6-2.6,2.8c-0.9,1.6-1.9,3.3-2.8,4.8c-0.8,1.5-1.6,3-2.4,4.5c-0.1,0.3-0.3,0.6-0.5,0.8
		c-0.2,0.2-0.4,0.5-0.4,0.7c0,1-0.5,2-1.4,2.6c-0.2,0.3-0.4,0.6-0.6,0.9c-0.9,1.3-1.5,2.7-1.9,4.2c-0.3,0.6-0.6,1.2-1,1.7
		c-0.9,1.7-1.8,3.4-2.7,5.2c-0.7,1.4-1.3,2.8-2,4.2c-0.3,0.6-0.5,1.2-0.7,1.8c-0.5,1.2-1.6,2.1-1.8,3.5c-0.1,0.2-0.1,0.3-0.3,0.4
		c-1.3,1.7-2.4,3.5-3.2,5.4c-0.5,0.9-0.9,1.8-1.3,2.7c-1.1,2.6-2.4,5.2-3.8,7.7c-0.6,1.2-1.5,2.4-2.1,3.6c-0.5,0.9-0.8,1.9-1.3,2.8
		c-0.1,0.2-0.2,0.5-0.4,0.5c-1.5,0.7-3.2,0.9-4.8,0.5c0.1-0.4,0.3-0.8,0.4-1.2c1.2-2.1,2.4-4.1,3.5-6.2c1.4-2.5,2.8-5.1,4.2-7.6
		c0.2-0.4,0.5-0.7,0.7-1c0.5-0.7,0.9-1.5,1-2.4c0.3-1,0.8-2,1.3-3c0.5-1,1-2.1,1.5-3.1c0.5-1,1.1-2,1.7-3c0.1-0.3,0.4-0.7,0.4-0.8
		s0.1-0.3,0.2-0.5c0.5-0.6,1.2-1.1,1.4-1.7c0.2-0.7,0.5-1.3,0.9-1.8c0.2-0.2,0.3-0.4,0.4-0.6c0.7-1.6,1.6-3.1,2.6-4.5
		c0.8-1.2,1.5-2.6,2-3.9c0.9-2.1,1.9-4.2,3.1-6.2c0.6-1,1.2-2.2,1.8-3.2c1-1.9,2-3.8,3-5.7c0.3-0.7,0.5-1.4,0.8-2
		c0.7-1.1,1.4-2.2,2-3.2c1.1-1.8,2.2-3.7,3.2-5.6c0.6-1.1,0.9-1.2,2-0.5c0.6,0.4,1.2,0.8,1.7,1.1c0.5,0.3,0.6,0.9,0.1,1.2
		c-1.3,0.7-1.5,2.1-2.3,3.2L183.1,129z M183.3,169.7c0.6,0.5,1,1.3,1,2.1c0.1,0.9,0.5,1.8,1.1,2.6c0.4,0.4,0.5,1,0.3,1.6
		c-0.1,0.5-0.1,0.9,0.1,1.4c0.2,1,0.4,2,0.4,3c0,0.6-0.1,1.3,0.8,1.6c-0.6,0.6-0.8,1.6-0.4,2.4c0,0.2,0,0.4,0,0.5
		c0,0.2-0.2,0.5-0.1,0.7c0.4,1.3,0.1,2.6,0,3.9c0,0.3-0.1,0.7-0.2,1c-0.3,0.7-0.4,1.4-0.2,2.1c0,0.1,0,0.2,0,0.4
		c-0.2,1.5-0.1,3,0.1,4.4c0.1,1.8,0,3.6-0.4,5.3c-0.2,1.2-0.2,2.5-0.4,3.7c-0.3,2.3-0.2,4.7-1.3,6.9c-0.2,0.4-0.3,0.9-0.3,1.4
		c-0.2,1.9-0.7,3.7-1.3,5.5c-0.3,1.1-0.5,2.2-0.8,3.2c0,0.3-0.1,0.6-0.2,0.8c-1.1,1.8-1.1,4-2.1,5.8c-0.3,0.8-0.5,1.7-0.6,2.5
		c-0.1,0.2,0,0.6-0.2,0.7c-0.7,0.6-0.8,1.5-1.1,2.2c-0.5,1.2-1.4,2.3-1.8,3.6c-0.5,1.2-1.2,2.2-2.1,3.2c-0.7,0.9-1.4,2-1.8,3
		c-0.1,0.3-0.3,0.6-0.6,0.8c-0.9,1-1.6,2-2.4,3.1c-2,2.6-3.2,5.6-5.5,8c-1.4,1.4-2.7,2.7-4,4.2c-0.7,0.8-1.3,1.7-1.9,2.6
		c-0.7,1-1.6,2-2.5,2.8c-1.2,1.1-2.2,2.4-3.3,3.6c-0.5,0.6-1,1.2-1.6,1.7c-1.1,1-2,2.1-2.8,3.4c-0.6,0.8-1,1.9-2,2.4
		c-0.5,0.3-0.8,1-1.3,1.3c-1.8,1.3-3.6,2.6-5.4,3.9c-0.1,0.1-0.2,0.2-0.4,0.4c0,0-1.4,1.8-1.7,1.9c-1.3,1-2.6,2.1-3.9,3.1
		c-0.6,0.4-1.1,0.8-1.7,1.3c-0.1,0.1-0.2,0.1-0.3,0.1c-1.3,0-2.7-0.3-3.9-0.7c-1.1-1.3-2.8-1.5-4.1-2.4c-1.3-0.8-2.7-1.5-4.1-2.1
		c-0.2-0.1-0.4-0.2-0.6-0.3c-1.2-1.1-2.5-2-4-2.8c-0.5-0.3-0.8-0.7-1.4-1.1c-0.5-0.3-1.1-0.6-1.7-0.9c-0.3-0.2-0.6-0.5-0.9-0.7
		c-1.1-0.7-2.3-1.4-3.4-2.2c-0.3-0.2-0.4-0.4-0.8-0.7c-0.4-0.2-0.7-1-1.4-0.5c0,0-0.5-0.3-0.5-0.5c0-0.9-0.5-1.3-1.1-1.8
		c-1.1-0.9-2.2-1.8-3.3-2.7c-1.4-1.2-2.7-2.4-4-3.6c-0.1-0.1-0.2-0.2-0.4-0.3c-1.9-1-3.2-2.8-4.8-4.2c-0.8-0.7-1.5-1.5-2.3-2.2
		c-0.2-0.2-0.5-0.3-0.7-0.4c-0.6-0.3-1.1-0.8-1.4-1.5c-0.1-0.4-0.3-0.7-0.6-0.9c-0.8-0.6-1.4-1.6-2.4-2c-0.1-0.1-0.2-0.3-0.4-0.4
		c-0.4-0.3-0.8-0.7-1.1-1c-0.2-0.2-0.6-0.2-0.7-0.4c-0.6-1-3.2-3-3.2-3l-0.4-0.7c-0.2-0.3-0.4-0.7-0.5-0.9s-0.4-0.3-0.5-0.5
		c-0.2-0.8-0.6-1.5-1.6-1.5c-0.1,0-0.2-0.1-0.2-0.1c-0.1-0.8-0.9-1.2-1.1-1.9c-0.2-0.5-0.5-1-0.9-1.5l-1.5-2
		c-0.1-0.1-0.2-0.2-0.2-0.3c-0.5-2-2.2-3.4-2.9-5.3c-1.1-0.7-1.3-2-1.9-3c-1-1.9-2.2-3.7-3.2-5.6c-0.4-0.7-0.5-1.4-0.9-2.1
		c-1-2-2-4.1-2.9-6.3c-0.9-2.4-1.4-5-1.6-7.6c0-0.2,0.1-0.5,0-0.7c-0.6-1.3-0.9-2.6-1-4c-0.2-1.8-1.1-3.3-1.5-5
		c-0.4-1.9-0.6-3.8-0.9-5.7c-0.3-2.2-0.5-4.5-0.4-6.8c0-1.5,0.2-3,0.3-4.5c0-0.2,0.2-0.5,0.1-0.7c-0.2-0.8-0.2-1.8,0.2-2.6
		c0.4-1.4,0.7-2.9,1-4.3c0.1-0.7,0.3-1.4,0.7-1.9c0.1-0.1,0.2-0.3,0.3-0.5c0.5-1.6,1-3.3,1.6-4.9c0.4-0.9,0.9-1.8,1.5-2.6
		c0.3-0.4,0.6-0.8,0.8-1.2c0.4-1.1,1.1-2.1,1.8-3.1c0.9-1.1,1.8-2.2,2.9-3.1c0.8-0.8,1.7-1.5,2.4-2.3c0.7-0.7,1.5-1.2,2.5-1.6
		c0.8-0.4,3-1.5,4.4-2.3c0.2,0.4,0.4,0.9,0.6,1.3c1.1,2.1,2.7,4,3.5,6.3c0.4,1.1,1,2.1,1.5,3.1c0.1,0.2,0.2,0.4,0.3,0.7
		c0.1,0.6,0.4,1.2,0.9,1.7c0.4,0.4,0.7,0.9,0.8,1.4c0.7,1.9,1.5,3.8,2.5,5.6c0.7,1.2,1,2.7,2.1,3.7c0.1,0.1,0.2,0.4,0.2,0.5
		c0.8,1.8,1.7,3.6,2.8,5.2c0.6,1.1,1.3,2.2,2,3.2s1.1,2.3,1.7,3.3c0.7,1.3,1.6,2.4,2.4,3.7c0.7,1.1,1.2,2.2,1.8,3.3
		c0,0.2,0,0.4,0,0.6c0,0.2-0.1,0.5-0.1,0.7c0,0.7,0.4,1.2,1,1.5c0.6,0,1.2-0.3,1.4-0.9c0.4-1,1.1-1.8,2-2.2c1.1-0.6,2-1.6,2.4-2.9
		c0.1-0.3,0.3-0.5,0.5-0.6c1.3-1.2,2-2.8,2.1-4.5c0.1-0.9,0.1-1.7,0.2-2.9c-0.5-0.2-1-0.3-1.5-0.4c-0.7,0-1.3-0.4-1.6-1
		c-0.6-1.2-1.3-2.5-1.9-3.7c-0.8-1.5-1.5-3.1-2.2-4.6c-0.3-0.5-0.5-1-0.9-1.4c-0.8-1.3-1.7-2.6-2.4-3.9c-0.8-1.6-1.6-3.2-2.4-4.8
		s-1.7-3.2-2.5-4.9c-0.5-1.1-1-2.1-1.5-3.2s-1.1-2.1-1.6-3.2c-0.2-0.4-0.4-0.8-0.5-1.2c-0.2-0.6,0-1,0.6-1c0.6,0,1.3,0.1,1.9,0.2
		c0.6,0.1,1.2,0.5,1.8,0.2c0.3-0.1,0.6-0.1,0.8,0c1.1,0.7,2.4,0.2,3.6,0.5c1,0.2,1.8,0.5,2.8,0.8s2.1,0.6,3.1,0.9
		c0.2,0,0.3,0.1,0.5,0.2c1.9,1.3,4.2,2.1,6,3.6c0.9,0.7,1.8,1.6,2.6,2.5c0.4,0.6,1.1,0.9,1.8,0.9c1,0,1.2,0.2,1.2,1.2
		c0,1.4,0.2,2.9,0.2,4.3c0,1-0.2,2.1-0.1,3.1c0.1,3.1-0.2,6.3-0.2,9.4c0,2.3,0.2,4.5,0.3,6.8s0.5,4.6-0.1,6.9
		c-0.1,0.5-0.1,1-0.1,1.5c-0.1,2.4-0.3,4.8-0.4,7.3c0,0.4,0.1,0.8,0.2,1.2c0.4,0.7,0.3,1.5-0.1,2.1c-0.2,0.2-0.1,0.7-0.2,1.1
		c0.3,0.1,0.6,0.1,0.9,0.1c2-0.4,4.1-0.8,5.7-2.1c0.1-0.1,0.1-0.1,0.2-0.1c1.5-0.2,2.2-1.5,3.2-2.2c1-0.8,2-1.6,2.9-2.5
		c0.5-0.5,0.9-1.1,1.3-1.7c0.2-0.4,0.4-0.8,0.9-0.8c0.2-0.1,0.4-0.4,0.5-0.6c0.1-0.4,0-0.8-0.2-1.1c-0.1-0.2-0.7-0.1-1,0
		c-0.3,0.1-0.6,0.3-0.8,0.5c-0.6-0.2-1-0.9-0.8-1.5c0.1-1.2,0.3-2.5,0.3-3.7c0-0.9-0.2-1.7-0.2-2.6c0-0.8,0-1.5,0.1-2.2
		c0.1-0.7,0.3-1.4-0.6-1.9c0.1-0.2,0.2-0.5,0.3-0.7c0.5-0.7,0.7-1.6,0.3-2.3c-0.1-0.3-0.1-0.6-0.1-0.9c0-1.4,0.1-2.8,0.2-4.2
		c0-0.1,0-0.2,0-0.4c-0.6-1.5-0.8-3.2-0.6-4.8c0.1-2.3-0.1-4.6-0.1-6.9c0-0.4,0-0.8,0-1.3c0.9,0.5,1.3,0,1.8-0.4
		c0.9-0.7,1.9-1.3,2.8-1.9c0.4-0.3,0.8-0.6,1.1-0.9c1.3-1.6,3.1-2.4,4.9-3.2c1.2-0.4,2.4-1,3.5-1.7c0.3-0.2,0.6-0.4,1-0.4
		c1.5-0.3,2.9-0.6,4.4-0.9c0.5-0.1,1-0.3,1.4-0.6c0.9-0.6,1-0.6,1.8,0.2c0.7-0.2,1.5-0.8,2.3-0.2c0.3,0.2,0.8,0,1.2-0.1
		c1.5-0.4,3.1-0.1,4.5,0.6c0.2,0,0.3,0.1,0.5,0.1c0.1,0.1,0.3,0.1,0.4,0.2c-0.2,0.6-0.4,1.2-0.6,1.8c-0.5,1-1.1,2-1.6,3
		c-0.3,0.6-0.5,1.2-0.6,1.8c-0.2,1-0.7,2-1.4,2.7c-0.6,0.6-1.1,1.3-1.3,2.1c-0.9,1.9-1.9,3.7-2.9,5.6c-0.6,1.1-1.1,2.3-1.6,3.4
		c-0.1,0.2-0.1,0.4-0.2,0.7c-0.5,0.7-0.9,1.4-1.4,2.1c-0.6,0.9-1.2,1.8-1.8,2.7c-0.1,0.2-0.2,0.3-0.3,0.5c-0.1,1.4-1.2,2.2-1.9,3.2
		s-1.5,2.2-2.1,3.3c-0.5,0.8-0.7,1.7-1.9,1.8c-0.2,0-0.5,0.6-0.5,1c0,0.4,0.1,0.7,0.3,1c0.9,1.2,1.8,2.6,3.5,2.7
		c0.4,0.1,0.8,0.2,1.1,0.4c0.2,0.1,0.4,0.1,0.6,0.1c0.8-0.5,1.5-0.1,2.3-0.1c1.7,0,3.3-0.1,5-0.3c1.2-0.3,2.5-0.7,3.6-1.2
		c0.1-0.8-0.5-0.9-1-1.2c0-0.2,0-0.4,0-0.5c0.5-1.3,1.2-2.6,2-3.8c0.5-0.7,0.9-1.4,1.2-2.2l0.7-1.3c0.4-0.6,0.7-1.2,1-1.9
		c0.7-1.7,2-3,2.5-4.9c0-0.2,0.3-0.4,0.4-0.7c0.2-0.2,0.3-0.4,0.5-0.7c0.4-0.9,0.8-1.8,1.3-2.7c1-1.8,1.9-3.7,2.9-5.5
		c0.1-0.2,0.2-0.3,0.3-0.5c1-1.7,1.9-3.5,2.5-5.4c0,0,0-0.1,0-0.1c0.9-1.1,1.1-2.5,1.7-3.7c0.2-0.3,0.4-0.6,0.7-0.8
		c0.6,0.2,1.2,0.6,1.7,1.1c1,1,2.2,1.9,3.3,2.9c0.4,0.3,0.7,0.8,0.9,1.2c0.3,0.9,1.1,1.2,1.8,1.7c0.5,0.4,1,0.9,1.4,1.4
		c0.7,1,1.5,1.9,2.4,2.7c0.6,0.5,0.9,1.3,0.7,2.1C182.8,168.9,182.9,169.4,183.3,169.7z M151.6,286.1c0.9,1.8,1.9,3.8,2.8,5.4
		s1.8,3.3,2.8,4.9c0.6,0.9,1,2,1.2,3.1c0,0.2,0.1,0.5,0.2,0.7c0.6,0.9,1.3,1.6,1.9,2.7c0.6,1.1,1.2,2.2,1.7,3.4
		c0.4,0.9,0.8,1.8,1.4,2.7c0.7,1.2,1.6,2.3,2.2,3.5c1,1.9,1.8,3.8,2.7,5.7c0.2,0.4,0.4,0.8,0.6,1.3c0.9,1.8,1.8,3.6,2.7,5.4
		c0.5,1.1,1.3,2.2,1.8,3.1c0.5,0.9,0.8,1.9,1.2,2.9c0.1,0.3,0.2,0.6,0.4,0.9c0.9,1,1,2.2,1.3,3.4c0.1,0.3,0,0.7-0.1,1
		c-0.4,1-0.9,1.2-1.8,0.5c-0.6-0.4-1.2-0.9-1.7-1.5c-0.6-0.5-1.1-1.2-1.6-1.7c-0.9-0.8-1.6-1.9-2-3c-0.4-1-1-2-1.6-3
		c-0.2-0.3-0.3-0.6-0.3-0.9c-0.1-1-0.5-2-1.3-2.8c-0.6-0.7-1.1-1.5-1.3-2.4c-0.1-0.2-0.2-0.4-0.3-0.6c-1.2-1.1-1.8-2.6-2.7-3.9
		c-1-1.7-2.1-3.3-3.4-4.7c-0.4-0.3-0.6-0.8-0.8-1.3c-0.2-1.3-1.2-2.2-1.8-3.2c-0.2-0.4-0.4-0.8-0.5-1.2c-0.4-1.1-0.9-2.1-1.5-3.1
		c-0.6-1-1.1-2-1.7-3c-0.4-0.6-0.8-1.2-1.2-1.8c-0.9-1.3-1.8-2.7-2.6-4c-0.2-0.4-4.8-9.2-5-9.6c-0.3-0.5-0.2-1.1,0.2-1.5
		c0.8-0.6,1.5-1.3,2.3-2c0.4-0.3,0.6-0.6,1-1s0.8-0.9,1.2-1.5c0.5,0.9,0.9,1.7,1.3,2.4C150.2,282.9,150.8,284.5,151.6,286.1z
		 M125,319.6c-0.4,1.9-0.5,3.8-0.3,5.7c0,1.9,0.2,3.7,0.2,5.6c0,2.2-0.1,4.3,0,6.4c0.1,1.3-0.3,2.5-0.2,3.8c0.1,1.8-0.1,3.7,0,5.5
		c0.2,0.8,0.2,1.6-0.1,2.3c0,0.1,0,0.2,0,0.3c0.5,1,0,1.8-0.1,2.8c-0.1,1.1-0.1,2.2-0.1,3.3c0,0.9,0,1.8,0,2.6
		c0,0.3,0.1,0.6,0.1,0.9c0.1,0.5,0.1,0.9,0,1.4c-0.2,1.4-0.2,2.9,0,4.3c0.1,1.2,0.1,2.5,0,3.7c0,0.4-0.3,0.6-0.6,1.2
		c-0.3,0.5-0.6,1-0.9,1.5c-0.1,0.2-0.2,0.5-0.4,0.5s-0.5-0.2-0.6-0.4c-0.3-1.2-0.6-2.5-0.9-3.7c-0.1-0.6-0.3-1.1-0.4-1.7
		s-0.1-1.3-0.2-1.9h0.1c-0.1-0.9-0.1-1.7-0.3-2.6c-0.1-1.2-0.2-2.3-0.2-3.5c0-1.5-0.2-3-0.7-4.5c-0.1-0.5-0.1-0.9,0-1.4
		c0-0.3,0.1-0.6,0.1-0.8c0-1.4-0.2-2.8-0.2-4.2c-0.1-2.8,0-5.4-0.1-8.2c-0.1-2.8-0.2-5.7-0.2-8.5c0-2.2,0.1-4.5,0.2-6.7
		c0-1.3,0-2.5,0-3.8c0.1-3.1,0.2-6.3,0.2-9.5c0.1-1.9,0.1-3.8,0.2-5.7c0-0.2,0-0.4,0-0.6c-0.4-2.3-0.5-4.6-0.2-6.9
		c0.1-1.9,0.2-3.7,0.3-5.6c0-0.1,0-0.2,0-0.4c0.1-0.8,0.5-0.9,1.1-0.6c0.6,0.3,1.2,0.7,1.9,1c0.6,0.3,1.3,0.5,1.9,0.6
		c0.5,0.1,0.9,0.5,0.9,1c0,0.6,0,1.1,0,1.7c0,0.8,0,1.6,0,2.5c0.1,1.9,0.1,3.7,0,5.6c-0.1,1.9-0.1,3.8-0.1,5.7c0,0.5,0,1.1,0,1.6
		c-0.1,2.2-0.2,4.4-0.3,6.6C125.1,317.6,125.1,318.6,125,319.6z M102,281.8c-1,1.3-1.9,2.8-2.6,4.4c-0.1,0.2-0.2,0.3-0.3,0.5
		c-1.1,1.5-2,3.1-2.8,4.8c-0.8,1.7-1.9,3.3-2.9,4.9c-0.2,0.4-0.3,0.8-0.4,1.2c-0.6,0.4-1,0.9-1.3,1.6c-0.6,0.9-1.3,1.7-2,2.5
		c-0.4,0.5-0.9,0.8-0.9,1.5c0,0.1-0.1,0.2-0.1,0.3c-1.8,1.7-2.4,4.1-3.7,6.1c-0.6,0.9-1.3,1.8-1.9,2.8c-1,1.5-1.9,3.1-2.9,4.6
		c-0.6,1-1.2,2-1.7,3c-0.1,0.2-0.2,0.4-0.4,0.6c-1,1.3-2.1,2.6-3.2,3.9c-0.4,0.5-0.8,1.1-1.2,1.7c-1.5,2.5-3.1,4.8-5,7
		c-1,1.1-1.9,2.2-2.9,3.3c-0.5,0.5-1.1,0.9-1.7,1.4c-1-1.2-1.2-3-0.6-4.4c0.2-0.7,0.4-1.4,0.7-2c0.2-0.5,0.5-1,0.8-1.5
		c0.2-0.4,0.4-0.8,0.6-1.1c0.5-0.8,1-1.7,1.6-2.5c0-0.1,0.2-0.1,0.2-0.2c1-2.3,2.5-4.3,3.1-6.7c0.1-0.3,0.2-0.5,0.3-0.8
		c1.6-2.2,2.4-4.8,3.7-7.2c0.2-0.3,0.3-0.6,0.5-0.8c0.9-1.2,1.7-2.5,2.6-3.7c0.3-0.5,0.6-1.1,0.9-1.7c0.5-0.9,1-1.8,1.7-2.8
		s1.4-2,2-3c0.4-0.6,0.7-1.3,1-2c0.3-0.6,0.6-1.2,1-1.8c0.7-0.8,1.3-1.7,1.9-2.7c0.5-1.1,1.4-1.7,1.9-2.8c0.6-1,1.2-2,1.9-2.8
		c0.8-1.3,1.5-2.6,2.4-3.8c1.3-1.8,2.3-3.9,3.7-5.7c0.5-0.7,0.8-1.4,1.3-2.1c0.2-0.3,0.5-0.6,0.8-0.9c0.2,0.1,0.4,0.1,0.4,0.1
		c0.7,1.3,1.9,1.8,3,2.6C103.2,279,103.3,279.7,102,281.8z M30.1,157c0-0.7,0-1.5,0.2-2.2c1-0.1,1.9-0.2,2.8-0.2
		c1.2-0.1,2.4-0.6,3.3-1.4c0.7-0.5,1.5-0.9,2.2-1.5c1-0.6,1.9-1.5,2.5-2.5c0.2-0.6,0.6-1.1,1.1-1.6c0.6-0.5,0.9-1.2,0.8-2
		c-0.1-0.9,0.4-1.8,1.3-2.2c1-0.4,1.8-1.3,2.2-2.4c0.2-0.1,0.3-0.2,0.6-0.3c0.5,0.2,0.9,0.3,1.4,0.5c0.5,0.1,1.1,0.2,1.6,0.3
		c1.1,0.5,2.2,0.8,3.4,1c1,0.3,2.1,0.3,3.2,0c0.1,0,0.2-0.1,0.4-0.1c1.7,0.2,3.3-0.5,5-0.4c1.2,0.1,2-0.7,3-1.1
		c0.1-0.1,1.6-0.7,2.6-1.2c1.2,2.2,2.3,4.4,3.5,6.5c0.6,1.2,1.4,2.5,2,3.7c0.3,0.5,0.3,1.2,0.5,1.7c-0.1,0.2-0.1,0.2-0.2,0.4
		c-0.8,0.2-1.7,0.5-2.1,0.8c-1.3,0.8-2.8,1.2-4.1,2c-1.1,0.7-2.2,1.4-3.2,2.1c-1.1,0.9-2.2,1.9-3.2,3c-0.4,0.4-0.7,0.8-1.1,1.2
		c-0.6,0.5-1.1,1.1-1.5,1.8c-0.5,1-1.3,2-1.8,3c-0.8,1.9-2.2,3.5-2.8,5.5c-0.3,0.8-0.6,1-1.6,1c-0.4,0-0.7,0.1-1.1,0.1
		c-1.4,0-2.9,0-4.3-0.2c-1.4-0.1-3.1-2.1-3.4-3.5c-0.2-1-0.5-2-0.9-3c-0.2-0.6-0.8-1-1.4-0.9c-0.5,0-1,0.1-1.5,0.2
		c-1.6,0.6-3.2,0-4.8-0.1c-0.8-0.1-1.5-0.4-2-1c-0.1-0.1-0.3-0.3-0.5-0.4c-1.5-1-2.5-2.7-2.8-4.5c-0.1-0.4,0.1-0.8,0.4-1
		C30.1,158,30.2,157.6,30.1,157z M45.8,86.2c-0.2,0-0.5,0.1-0.7,0.1c-0.3-0.4-0.1-1,0.3-1.3c0.9-0.9,0.9-0.9,0.1-2l-1.4,0.6
		c-0.6-0.4-0.3-0.9,0-1.1c0.2-0.2,0.5-0.3,0.7-0.6c0.4-0.4,0.4-0.9,0-1.3c-0.3-0.4-0.7-0.3-1.1-0.1c-0.1,0-0.3,0.1-0.3,0
		c0-0.1,0-0.2,0-0.2c0.1-0.1,0.1-0.2,0.2-0.2c0.8-0.9,2.2-1,3.1-0.2c0.4,0.4,0.7,0.9,1,1.3c0.4,0.7,0.8,1.3,1.3,1.8
		c0.5,0.5,0.8,1.1,1,1.8c-0.3,0.2-0.6,0.3-0.8,0.4c-0.1,0-0.1,0.1-0.2,0.1c-0.4,0.4-0.4,1,0,1.4c0.4,0.4,0.8,0.5,1.2,0
		c0.2-0.3,0.5-0.6,0.7-0.9h0c0.7,0.5,0.8,0.8,0.2,1.2c-0.3,0.2-0.6,0.3-0.9,0.4c-0.5,0.2-0.9,0.6-1.1,1.2c-0.2,0.5,0,1,0.6,1
		c0.6-0.1,1.2-0.2,1.7-0.4c0.5-0.2,1-0.4,1.8-0.7c1.2,0.9,1.7,2.6,2.4,4c-0.6,0.4-1,0.7-1.5,1c-0.6,0.5-0.7,1-0.4,1.4
		c0.3,0.5,0.7,0.5,1.5,0.1c0.3-0.2,0.7-0.3,1.1-0.6c0.1,0.6,0.1,0.9-0.4,1.1c-0.6,0.3-1.2,0.7-1.7,1.2c-0.3,0.4-0.4,0.9-0.5,1.4
		c0.8,0.6,1.2-0.2,1.9,0c-0.4,0.4-0.9,0.7-1.4,1c-1,0.5-2,1-3,1.5c-1,0.5-1.5,0.4-1.9-0.6c-0.3-0.5-0.4-1.1-0.5-1.7
		c-0.1-1.7-0.5-3.4-1-5c0-0.2-0.1-0.3-0.2-0.4c-1.1-1-1.2-2.5-1.8-3.7c0,0-0.1-0.1-0.1-0.1c-0.3-0.6,0-1.2,0.5-1.5
		c0.1-0.1,0.2-0.2,0.3-0.4c0.1-0.2,0.1-0.3,0.1-0.5C46.7,86.5,46.3,86.2,45.8,86.2z M42.6,77.4c-0.9,0.1-1.8-0.3-2.4-1
		c-0.2-0.3-0.5-0.5-0.8-0.7c-1-0.3-1.6-1.3-1.4-2.3c-0.1-1.7,1-3.2,2.7-3.7c0.5-0.2,1.1-0.4,1.7-0.4c0.9,0.2,1.8,0.5,2.7,0.9
		c1.1,0.6,1.7,1.8,1.6,3C46.6,75.5,44.8,77.2,42.6,77.4z M48,105c1.3-1.1,2.8-1.9,4.4-2.4c0.4-0.2,0.7-0.5,1.1-0.7
		c0.7-0.4,1.5-0.6,2.3-0.5c0.2,0,0.4,0,0.6-0.1c1.2-0.8,2.6-1.4,3.5-2.7c0.5,0.3,1.2,0.2,1.6-0.2c1.4-1.5,3.4-2.2,5-3.4l3.8-2.6
		c0.4,0.3,0.8,0.8,1,1.3c0.2,0.7,0.5,1.4,0.9,2c0.3,0.6,0.8,1.4,1.4,2.1c0.3,0.3,0.1,0.8-0.3,0.8c-0.8,0.1-1.7,0.4-2.4,0.7
		c-1,0.5-2.2,0.8-3.2,1.3c-1.3,0.5-2.5,1.2-3.6,2c-1.1,0.8-2.2,1.5-3.5,2c-1.7,0.7-3.5,1.1-5.1,1.9c-1.7,0.6-3.2,1.5-4.6,2.6
		c-0.1,0.1-0.1,0.1-0.2,0.2c-1.7,0.9-3.5,1.9-5.2,2.8c-0.9,0.4-1.8,1-2.6,1.6c-0.6,0.5-1.3,1-2,1.5c-0.5,0.3-1.1,0.1-1.4-0.3
		c-0.8-1.2-1.9-2.1-2.2-3.6c-0.1-0.2-0.2-0.4-0.3-0.6c-0.4-0.5-0.4-1.2-0.1-1.7c0.4-0.6,1.1-0.9,1.8-0.7c0.7,0.1,1.4,0,1.9-0.3
		c1.1-0.5,2.1-0.9,3.3-1.3c1.2-0.4,2.5-0.8,3.7-1.3C47.7,105.3,47.9,105.1,48,105z M52.8,110.5c1.6-1.3,3.3-2.3,5.2-3
		c1-0.4,2-0.7,3-1.1s2-0.8,3-1.2c0.3-0.1,0.7-0.4,0.9,0.2c0.3,0.5-0.1,0.8-0.4,1c-0.6,0.4-1.2,0.7-1.8,0.9c-1.7,0.7-3.4,1.4-5.1,2.2
		c-0.9,0.4-1.8,0.9-2.8,1.4c-0.4,0.2-0.9,0.4-1.2,0.6l0,0c-0.3-0.1-0.6-0.1-0.8-0.2S52.7,110.5,52.8,110.5z M65.3,108.1L65.3,108.1
		c0.9,1.3,0.9,2.8,1.3,4.2c0.1,0.2-0.2,0.6-0.3,0.8c-0.1,0.1-0.3,0.3-0.5,0.3l-4.2,2c-0.5,0.2-1,0.4-1.5,0.7c-0.9,0.6-2,0.7-3,0.2
		c-0.2-0.1-0.7,0.1-1.2,0.2c-0.8-0.9-1.3-2.1-1.2-3.3L65.3,108.1z M59.8,119.3c1.6-0.7,2.8-1.9,4.3-2.7c0.2-0.1,0.4-0.2,0.7-0.3
		l1.2-0.6l2.2-1.1c0.4,0.7,0.5,1.4,0.3,2.2c-0.3,1-1.2,1.1-1.8,1.6c-0.4,0.2-0.8,0.3-1.2,0.4c-0.6,0.2-1.1,0.5-1.7,0.8
		c-1.1,0.6-2.3,1-3.5,1.3c-0.4,0-0.8-0.2-1-0.5C59,119.9,59.5,119.5,59.8,119.3z M69.4,121.9c0.3,0.9,0.7,1.7,1.1,2.5
		c0.9,1.7,1.9,3.5,3,5.1c0.9,1.4,1.6,2.9,2.3,4.4c0.5,1,1,2.1,1.5,3.1l2,4.1c0,0,0.6,2.2,1.6,3.1c0.4,0.6,0.8,1.2,1,1.9
		c0.8,1.6,1.5,3.1,2.4,4.8c0.9,1.7,1.9,3.4,2.8,5.1c0.1,0.2,0.2,0.4,0.4,0.6c0.1,0.2,0.4,0.4,0.4,0.6c0,0.6,0.2,1.1,0.6,1.5
		c0.4,0.6,0.7,1.2,0.9,1.9c0.6,1.3,1.2,2.6,1.8,3.9c0.3,0.6,0.7,1.2,1.1,1.8c0.4,0.4,0.6,0.9,0.7,1.5c0,0.4,0.2,0.8,0.4,1.1
		c1.8,2.7,3.4,5.5,4.6,8.5c0.9,2.2,2,4.3,3.2,6.2c0.6,1,1.1,2,1.5,3.1c0.5,1.1,0.2,2.4-0.6,3.3c-0.7-1.1-1.4-2.3-2-3.5
		c-0.8-1.8-1.8-3.6-2.9-5.3c-0.5-0.8-0.7-1.9-1.2-2.8c-0.8-1.4-1-3-1.6-4.4c-0.6-1.1-1.3-2.2-2-3.2c-0.4-0.7-0.7-1.4-1.1-2.1
		c-0.3-0.5-0.6-0.9-0.9-1.4c-0.7-1-1.3-2.2-1.5-3.5c-0.4-1.7-1.1-3.4-2.1-4.9c-0.8-1.2-1.5-2.5-2.1-3.8c-0.8-1.9-1.8-3.8-2.9-5.6
		c-0.5-0.6-0.7-1.4-1.2-2.1c-1.3-1.7-2-3.9-3.6-5.4c-0.1-0.1-0.2-0.2-0.2-0.3c-0.6-2-1.9-3.7-2.7-5.5c-0.4-0.9-0.7-1.9-1.2-2.8
		c-1-2-2.1-4-3-6.1c-0.4-1.1-0.9-2.3-1.5-3.3c-0.4-0.8-0.7-1.7-0.7-2.6c-0.1-0.5,0.2-1,0.6-1.2C68.7,120.7,69.1,121.3,69.4,121.9z
		 M61.8,122.8c0.6-0.2,1.2-0.5,1.9-0.7c0.2,0,0.5,0,0.7,0c0.1,2.2,1.5,3.9,2.4,5.7c0.3,0.7,0.7,1.4,1,2.2c0.5,1.3,1,2.6,1.5,3.9
		c0.6,1.3,1.2,2.6,1.8,3.9c0.5,1,1.1,1.9,1.6,2.9c0.3,0.6,0.5,1.2,0.8,1.7c0.7,1.2,1.4,2.3,2,3.5c0.7,1.3,1.6,2.6,2.5,3.7
		c0.5,0.6,0.8,1.3,1.1,2c0.7,1.6,1.6,3.2,2.5,4.7c0.8,1.3,1.3,2.6,2,3.9c0.4,0.6,0.8,1.3,1.1,2c0.3,0.9,0.8,1.7,1.3,2.5
		c0.9,1.4,1.7,2.8,2.5,4.2c0.4,0.7,0.9,1.3,1.3,1.9c0.8,1.4,1.4,2.9,2.2,4.4c0.3,0.7,0.9,1.2,1.2,1.9c1.1,1.5,1.9,3.2,2.4,5
		c0.3,0.9,0.7,1.8,1.1,2.6c0.6,1.2,1.3,2.5,1.8,3.8c0.1,0.4,0.2,0.8,0.2,1.3c0,0.9,0.3,1.7,1,2.3l1.5-0.7c0.2,0.8-0.5,1.2-0.8,1.7
		c-0.4,0.6-0.8,1.1-1.2,1.6c-0.6-0.3-0.8-1.1-1.2-1.6c-0.8-0.9-1.5-1.9-2-3c-0.6-1.7-1.8-3-2.5-4.7c-0.9-1.8-1.9-3.5-3.1-5.2
		c-1.4-1.9-2.6-4-3.4-6.3c0-0.2-0.1-0.3-0.2-0.4c-0.9-1.3-1.6-2.7-2.1-4.2c-0.6-1.4-1.4-2.8-2.2-4.2c-0.5-0.9-0.9-1.8-1.4-2.7
		c-0.9-1.7-2-3.3-2.9-5.1c-0.9-1.5-1.6-3.1-2.4-4.7c-0.3-0.6-0.7-1.2-1-1.8c-0.3-0.5-0.5-1.2-0.7-1.6c-0.2-0.5-0.5-0.9-0.7-1.4
		c-0.6-1.1-1.2-2.2-1.8-3.4c-0.3-0.5-0.7-1.1-1-1.6c-0.1-0.1-0.2-0.2-0.3-0.4c-0.5-0.9-1-1.7-1.4-2.6c-0.9-1.9-1.8-4-2.7-5.8
		c-0.9-1.8-1.9-3.5-2.9-5.3c-0.2-0.3-0.3-0.7-0.5-1c-0.5-0.9-0.9-1.7-1.4-2.6c-0.1-0.3-0.3-0.5-0.5-0.8
		C60.9,123.4,61,123.1,61.8,122.8z M124.6,196.8c0,0.7,0.2,1.4-0.6,1.9c-0.9-1.2-1.6-2.3-1.3-3.9c0.1-0.7,0.1-1.4-0.1-2.1
		c0.1-1.2-0.1-2.3-0.4-3.4c-0.1-0.1-0.1-0.3,0-0.5c0.7-1.8,0.5-3.6,0.5-5.4c0-2.6-0.5-5.2-0.4-7.8c0.1-3.1,0-6.1,0-9.2
		c0-2.4-0.1-4.9-0.1-7.3c-0.1-2-0.2-3.9-0.3-5.9c-0.1-1.8-0.3-3.6-0.4-5.5c0-1.1,0.1-2.3,0.1-3.5c0.1-1.7,0.1-3.3,0.1-5
		c0-1.4,0.2-2.8,0.1-4.2c-0.2-3.2,0.6-6.2,0.4-9.4c-0.1-1.9,0.1-3.7,0.1-5.6c0-1.4-0.1-2.7-0.1-4.1c0-2.4,0.2-4.9,0.1-7.3
		c-0.2-3.1,0.5-6.1,0.4-9.2c0-0.6,0.2-1.2,0.5-1.7c0.1-0.2,0.4-0.4,0.6-0.4c0.2,0.1,0.4,0.3,0.5,0.5c0.1,0.6,0.1,1.3,0,1.9
		c-0.1,1.1-0.1,2.2,0.1,3.3c0.1,1.3,0.1,2.5,0,3.8c0,0.3-0.1,0.6-0.1,0.8c0,2.3,0.1,4.5,0.1,6.8c0.1,1.1,0,2.3,0,3.4
		c0.1,1.9,0.3,3.7,0.2,5.6c-0.1,2.3-0.2,4.6-0.2,6.8c0,2.2-0.3,4.4,0.1,6.7c0.1,1,0.1,2.1,0.1,3.1c0,1.4,0,2.7,0,4
		c0,0.8-0.1,1.6-0.2,2.4c0,0,0,0.1,0,0.1c0.5,2.1-0.6,4.1-0.1,6.3c0.2,1.7,0.3,3.5,0.2,5.2c0,1.1,0.2,2.3,0.3,3.4
		c0.1,0.8,0,1.6,0,2.5c-0.1,1.9-0.1,3.8-0.3,5.7c-0.1,2.2,0,4.4,0.3,6.5c0.1,1.6,0.2,3.2,0.1,4.8c0,1.3-0.1,2.5,0,3.8
		c0.1,2.3,0,4.5-0.3,6.8C124.5,193.3,124.6,195.1,124.6,196.8z M124.3,95.1c-1.3,0-2.7-0.1-4-0.2c-0.5,0-1,0-1.7,0h0
		c-0.4,0.1-0.8,0.1-1.1,0.1c-0.3,0-0.6-0.2-0.9-0.5c0-0.3,0.1-0.7,0.3-0.9c0.2-0.3,0.5-0.5,0.9-0.5c1.2-0.3,2.5-0.3,3.8-0.2
		c0.6,0.1,1.2,0.1,1.8,0.1c0.7-0.1,1.4,0.2,1.7,0.8c0.2,0.3,0.3,0.7,0.2,1C124.9,95,124.6,95.2,124.3,95.1z M116.7,190.8
		c-0.1-1.2-0.2-2.4-0.2-3.6c-0.1-2.1-0.2-4.1-0.4-6.1c0-0.5,0-1,0.1-1.4c0.1-2.2,0.2-4.5,0.2-6.7c0-1.9,0-3.8,0-5.6
		c0-2.8,0-5.5,0.1-8.2c0-1.3,0.3-2.7,0.5-4c0.1-0.5,0.1-0.9,0.1-1.4c-0.4-3.5-0.1-7.1-0.1-10.6c0-0.7-0.1-1.3-0.1-2
		c0-0.4,0-0.7,0-1.1c0.2-1.3,0.2-2.6-0.1-3.9c-0.1-1.5-0.2-3-0.1-4.5c0-0.6-0.1-1.3-0.1-1.9c0.1-1.7,0.2-3.4,0.2-5.1
		c0-1.2-0.1-2.4-0.1-3.6c0-0.4,0.1-0.7,0.1-1.1c0-0.8-0.1-1.6-0.1-2.4s0-1.5,0-2.3c0-1.3,0-2.6,0-3.9c0-1.5,0.1-2.9,0-4.4
		c0-0.8-0.4-1.6-0.5-2.4c-0.2-1.3-0.3-2.6-0.3-3.9c0.1-1,0.3-2,0.7-3c0.1-0.5,0.6-0.6,1.1-0.5c0.5,0.2,1,0.2,1.5,0.2
		c0.6-0.1,0.9,0.2,0.9,0.8c0.3,2.2,0.4,4.5,0.3,6.8c0,0.4-0.1,0.8-0.2,1.2c-0.3,1.1-0.4,2.2-0.2,3.2c0,1.1,0,2.2,0,3.2
		c0,0.8,0,1.5,0,2.3c0,0.6,0.2,1.2,0.2,1.8c0.1,1.6,0.3,3.2,0.3,4.9c0,1.9,0,3.7-0.2,5.6c-0.2,1.3,0.1,2.7-0.5,4c0,0.1,0,0.2,0,0.3
		c0.4,2,0,4-0.2,6c0,2.6,0.1,5.2,0.3,7.8c0,0.8,0.1,1.7,0.1,2.5c0.1,1.6,0.1,3.2,0.2,4.9c0,1.1,0.1,2.1,0.2,3.2
		c0.1,2.3,0.3,4.5,0.4,6.8c0,0.9-0.1,1.8-0.1,2.7c0,0.6,0,1.3,0,1.9c0,1.8-0.1,3.7-0.2,5.5c-0.1,2.6-0.2,5.3-0.2,7.9
		c0,1.8,0.3,3.5,0.5,5.3c0,0,0,0.1,0,0.1c-0.3,2.5,0.4,5,0.2,7.5c0,0.1,0,0.2,0,0.2c-0.6,1.7-0.2,3.4-0.2,5.1c0,0.4,0.2,0.8,0.2,1.2
		c0,0.3,0.1,0.8-0.1,1c-1.1,1.3-2.5,2.4-4,3.2c-0.2,0-0.4,0-0.6,0c0-0.5-0.1-1-0.2-1.3c0-0.8,0.1-1.5,0.1-2.3
		c0.2-2.4,0.2-4.8,0.5-7.1C116.9,192.6,116.8,191.7,116.7,190.8z M120.8,91.2c-1.5,0.1-3-0.1-4.4-0.1h0c-0.1-0.9-0.2-1.6-0.2-2.2
		c0-0.2,0-0.3,0-0.5c0.4-0.7,0.8-1.4,1.3-2c0.2-0.2,0.7-0.2,1-0.2c0.7,0,1.3,0.2,2,0.2c1.4,0.1,2.8,0.2,4.2,0.3c0.8,0.1,1,0.3,1,1.2
		c-0.1,1.1-0.2,2.1-0.3,3.3C123.8,91.6,122.3,91.2,120.8,91.2z M125.5,85c-1.8-0.6-3.7-0.2-5.5-0.3c-1-0.1-2-0.2-3-0.3
		c-0.2-0.1-0.5,0-0.7,0c-0.4,0-0.7-0.1-0.7-0.7c0.4-0.3,0.9-0.4,1.4-0.3c1.2,0.2,2.6,0.5,3.6-0.5l0,0c1.7,0.6,3.6,0.6,5.3,0
		c0.6,0.6,0.8,1.2,0.3,1.7C126,84.9,125.8,85,125.5,85z M179,120.6c0.6,0.5,0.8,1.1,0.3,1.8c-0.9,1.1-1.2,2.4-2.1,3.5
		c-1.1,1.5-2.1,3.1-2.9,4.8c-0.8,1.6-1.5,3.2-2.3,4.8c-0.2,0.5-0.6,0.9-0.9,1.4c-1.1,2.1-2.3,4.3-3.5,6.3c-0.1,0.2-0.3,0.5-0.4,0.8
		c-0.9,1.8-1.7,3.8-2.8,5.5c-1.3,2-2,4.3-3,6.3c-0.3,0.5-0.7,1-1,1.5c-0.4,0.8-0.9,1.5-0.2,2.5c-0.6,0.5-1.2,1-1.8,1.4
		c-0.6,0.4-1,0.9-1.2,1.6c-0.4,0.9-0.9,1.7-1.4,2.5c-0.8,1.5-2,2.7-2.6,4.3c-0.3,0.7-0.7,1.4-1.2,2c-0.8,1.3-1.4,2.6-2,3.9
		c-0.8,2-2.1,3.7-3,5.6c-0.8,1.7-1.7,3.4-2.5,5.1c-0.1,0.2-0.1,0.4-0.3,0.5c-0.6,0.5-0.7,1.4-0.2,2c-1,1.2-2.8,1.2-3.4,0
		c-0.3-0.5-0.2-1,0.1-1.5c0.1-0.2,0.3-0.4,0.5-0.5c1.7-1.8,3-3.9,4.1-6.1c1.1-2,2.1-4.1,3.4-6c1.4-2.1,2.3-4.4,3.5-6.5
		c1.1-2,2.2-4.1,3.1-6.3c0.5-1.3,1.1-2.6,1.8-3.9c1.1-2.2,2.1-4.6,3.1-6.8c0.5-1.1,1.2-2.1,1.8-3.1c0.6-0.9,1-1.9,1.4-2.9
		c0.4-1.1,0.9-2.1,1.5-3.1c0.5-0.9,1-1.9,1.4-2.9c0.7-2,1.6-3.9,2.7-5.7c1.6-2.8,2.8-5.7,4.3-8.5c0.1-0.2,0.3-0.4,0.4-0.6
		c0.4-0.7,0.8-1.5,1.2-2.2c0.5-0.7,1-1.4,1.6-2.1C177,119.9,178.4,120.1,179,120.6z M246.2,433.3c-0.5,0-1,0.1-1.5,0.1h-41.9h-47.5
		H91.4H57.7H11.5c-2.3,0-4.6,0-6.8,0c-0.4,0-0.7-0.1-1-0.2c-0.5-0.2-0.9-0.4-1.5-0.6V315.8c0-6.6,0-13.2,0-19.9c0-0.7,0.1-1.3,0.3-2
		c0.2-0.7,0.5-1.5,0.6-2.2c0.2-0.7,0.4-1.5,0.6-2.2c0.1-0.1,0.1-0.3,0.2-0.4c0.3-2.2,0.6-4.4,1-6.6c0.3-1.5,0.7-2.9,1-4.3
		c0.4-1.6,0.7-3.2,0.9-4.8c0.2-1.7,0.6-3.4,1.1-5.1c0.5-2.2,0.8-4.4,1.1-6.6c0.2-1.4,0.5-2.6,0.8-4.1c0.2-1.5,0.4-2.9,0.6-4.3
		c0-0.2,0-0.4,0.1-0.6c0.3-1.2,0.5-2.4,0.4-3.6c0.2-1.7,0.5-3.5,0.7-5.2c0.1-0.6,0.2-1.2,0.2-1.9c0-1.5,0.3-3,0.8-4.3
		c0.2-0.8,0.4-1.7,0.5-2.6c0.2-1.4,0.5-2.7,0.7-4.1c0.1-0.2,0.2-0.5,0.2-0.7c1-2.6,1.2-5.4,1.8-8.1l1.4-6.1c0.1-0.2,0.1-0.5,0.1-0.7
		c0.1-1.4,0.2-3,0.4-4.3c0.2-1.3,0.5-2.6,0.8-3.9c0.5-2.6,1-5.1,1.6-7.7c0.2-0.9,0.4-1.8,0.5-2.7c0.5-4.1,1.5-8.2,2.2-12.3
		c0.4-2.5,0.8-5,1.3-7.4c0.2-1.3,0.4-2.7,0.8-4c0.3-1,0.6-2,0.9-3.1c0.2-0.9,0.5-1.7,0.7-2.6c0.2-0.7,0.6-1.3,1.1-1.8
		c0.4-0.4,0.7-0.4,1.2,0s1.1,0.8,1.6,1.3c1.2,1.1,2.8,1.5,4.4,1.3c0.4-0.1,0.8-0.1,1.2,0c0.5,0.1,1.1,0.1,1.6,0
		c1.3-0.3,1.9,0.4,2.2,1.6c0.1,1.3,0.6,2.6,1.3,3.8c0.4,0.4,0.8,0.7,1.2,1c0.8,0.6,1.7,1.1,2.6,1.6c0.5,0.2,1.1,0.3,1.6,0.2
		c0.3,0,0.5-0.5,0.8-0.7c0.8,0,1.7-0.1,2.5-0.3c0.8-0.2,1.7-0.5,2.5-0.8c-0.1,0.8-0.3,1.6-0.5,2.3c-1,2-0.9,4.2-1.4,6.3
		c-0.4,1.6-0.7,3.3-1.1,4.9c-0.3,1.1-0.3,2.2,0.1,3.3c0.3,1,0.8,2,0.2,3.1c-0.1,0.1-0.1,0.3,0,0.5c0.3,1.3,0.2,2.7,0.8,4
		c0.4,1,0.7,2,0.9,3.1c0.3,1.3,0.5,2.6,0.8,3.9c0,0.2,0.1,0.5,0.2,0.7c0.4,0.5,0.6,1.1,0.6,1.8c0.4,2.4,1.1,4.7,1,7.2
		c0,0.4,0.1,0.8,0.2,1.2c0.7,1.8,1.3,3.7,2,5.5c0.2,0.4,0.4,0.9,0.6,1.3c0.8,1.7,1.6,3.4,2.5,5c0.6,1.2,1.4,2.3,2.1,3.4
		c0.5,0.8,0.9,1.7,1.4,2.5c1.1,1.9,2.1,3.8,3.3,5.6c0.7,1,1.3,2,1.9,3.1c0.5,0.8,1.1,1.6,1.7,2.3c0.4,0.6,0.8,1.2,1.2,1.7
		c0.6,0.9,1.3,1.7,2.2,2.3c0.5,0.2,0.8,0.6,1.1,1.1c0.5,1.3,1.8,1.8,2.5,2.9c0.2,0.4,0.5,0.7,0.9,1c1.5,1.4,3.1,2.9,4.5,4.4
		c0.8,0.9,1.5,1.7,2.2,2.7c0.4,0.5,0.7,1,1.4,1.1c0.2,0,0.7,0.4,0.7,0.6c0,0.9,0.7,1.1,1.3,1.8c0.6,0.6,1.4,1.1,1.9,1.8
		c1,1.1,2,2.1,3.2,3l3,2.7c0.1,0.1,0.2,0.1,0.2,0.2c0.2,0.3,0.1,0.8-0.2,1c-1.2,1.4-5.1,7.9-5.5,8.7c-0.5,0.9-0.9,1.8-1.3,2.8
		c-0.2,0.5-0.6,0.9-1.1,1.3c-0.3,0.2-0.6,0.5-0.9,0.8c-1.1,1.6-2.2,3.3-3.2,5c-1,1.3-1.9,2.8-2.6,4.3c-0.1,0.3-0.5,0.6-0.7,0.9
		c-1.3,2-2.5,3.9-3.8,5.9c-0.9,1.3-1.5,2.7-2.1,4.2c-0.2,0.5-0.7,1-1,1.4c-0.5,0.8-0.9,1.6-1.4,2.4c-1.1,1.9-2.2,3.8-3.2,5.7
		c-0.5,0.9-0.8,1.9-1.2,2.8c-0.8,1.8-1.8,3.5-2.6,5.2c-0.6,1.4-1.6,2.6-1.9,4.2c-0.2,0.9-0.8,1.8-1,2.7c-0.5,1.8-0.9,3.7-1.3,5.6
		c-0.1,0.3,0,0.7,0.2,1c0.7,1.2,2.1,1.8,3.5,1.5c0.7-0.1,1.3-0.4,1.8-0.8c0.1-0.1,0.2-0.2,0.3-0.2c1.6-0.6,2.5-2,3.8-3
		c0.3-0.3,0.6-0.7,0.9-1.1c0.8-1.2,1.6-2.5,2.5-3.8c0.5-0.8,1.1-1.5,1.6-2.2c1.4-2.3,3-4.4,4.8-6.5c0.4-0.5,0.7-1,1-1.6
		c0.9-1.7,3.3-4.7,3.3-4.7c-0.2,0.7-0.3,1.5-0.5,2.2c-0.7,2.8-1.5,5.5-2.1,8.3c-0.4,1.7-0.8,3.4-1.1,5.1c-0.2,1.3-0.4,2.6-0.6,3.9
		c-0.1,0.8-0.4,1.6-0.5,2.5c-0.2,1.5-0.4,3.1-0.7,4.6c-0.8,3.9-1.6,7.9-2.4,11.8c-0.4,2-1,4-1.2,6c-0.4,3.7-1.6,7.1-2.4,10.7
		c-0.2,1.2-0.6,2.5-1,3.7c-0.4,1.3-0.6,2.7-0.6,4.1c0,0.2,0,0.5-0.1,0.7c-1.3,3-1.6,6.3-2.7,9.3c-0.9,2.7-1.5,5.5-2.1,8.3
		c-0.1,0.8-0.1,1.5-0.1,2.3c0,0.2,0,0.4,0.2,0.5c0.2,0.2,0.4,0.3,0.7,0.3c0.2,0,0.4-0.3,0.4-0.5c0.1-0.4,0.2-0.9,0.3-1.3
		c0.3-1.4,0.7-2.9,1.1-4.3c0.5-1.9,1-3.8,1.5-5.7c0.7-2.6,1.5-5.2,1.9-7.9c0.3-2.1,1.2-4,1.3-6.2c0.3-1.5,0.7-2.9,1.2-4.3
		c0.4-1.4,0.7-3,1-4.4c0.5-2,0.9-4.1,1.2-6.2c0.2-2.7,1.2-5.2,1.5-7.8c0.2-1.5,0.5-2.9,0.9-4.3c0.3-1.1,0.8-2.1,1.2-3.1
		c0.4-0.8,0.4-1.7,0-2.4c-0.2-0.4-0.2-0.8-0.1-1.2c0.4-1.8,0.8-3.6,1.1-5.5c0.3-1.6,0.5-3.3,0.7-4.9c0.1-1,0.3-2,0.5-2.9
		c0.5-1.8,1-3.6,1.6-5.4c0.8-2.5,1.6-5,2.5-7.5c0.4-0.8,0.1-1.7-0.6-2.1c0.7-1.2,1.3-2.3,1.9-3.4c0.1-0.2,0.3-0.6,0.4-0.8
		c0.5-1.3,1-2.6,1.6-3.8c0.6-0.9,1.2-1.8,2-2.5c1-1.1,1.9-2.3,2.7-3.6c0.4-0.6,0.7-1.2,1.1-1.9c0.5,0.9,0.5,1.2-0.1,1.6
		c-0.5,0.3-0.7,0.8-0.7,1.4c-0.3,2.1-0.7,4.1-1.2,6.2c-0.6,2.5-1.8,5-1.9,7.6c-0.2,1-0.4,1.9-0.7,2.9c-0.2,1-0.3,2-0.5,3
		c-0.1,0.7-0.3,1.3-0.5,2c-0.1,0.5-0.3,0.9-0.3,1.4c-0.2,1.8-0.4,3.7-0.7,5.6c-0.5,3.2-1.1,6.4-1.7,9.7c-0.4,2.3-1,4.7-1.4,7
		c-0.5,2.6-0.9,5.4-1.3,7.9s-0.9,5-1.4,7.5c-0.3,1.6-0.5,3.1-0.8,4.7c-0.5,2.8-0.9,5.7-1.4,8.5c-0.1,0.9-0.2,1.8-0.3,2.7
		c-0.3,3.1-0.8,6.2-1.5,9.2c-0.5,2.4-0.8,4.9-1.3,7.3c-0.2,1.3-0.7,2.5-0.9,3.8c-0.4,2.1-0.6,4.2-1,6.2c-0.2,1.3-0.6,2.5-0.9,3.8
		c-0.4,1.9-0.8,4-1.2,5.7c-0.4,1.8-0.9,3.5-1.3,5.3c-0.2,1-0.3,2-0.4,3.1c-0.1,0.8,0.2,1.5,0.8,2c0.7-0.2,1.1-0.8,1-1.5
		c0-1.4,0.8-2.6,1-4c0,0,0,0,0,0c-0.1-2.3,0.7-4.4,1-6.7c0-0.2,0-0.3,0-0.5c0.4-1.7,0.8-3.4,1.2-5.2s0.7-3.7,0.9-5.5
		c0.3-2.5,0.8-5,1.5-7.5c0.2-0.8,0.4-1.5,0.4-2.3c0.2-1.9,0.5-3.8,1.1-5.6c0-0.3,0.1-0.5,0.1-0.8c0.1-0.6,0.2-1.2,0.3-1.9
		c0.2-0.9,0.3-1.9,0.5-2.8c0.3-2.2,0.6-4.5,0.9-6.7c0.3-1.9,0.8-3.8,0.9-5.8c0.2-2.8,0.8-5.4,1.2-8.2c0.3-2,0.7-3.9,1.2-5.8
		c0.6-3.1,1.1-6.2,1.6-9.3c0.2-1.1,0.5-2.3,0.7-3.4c0.7-3.9,1.3-7.9,1.9-11.9c0.3-2.5,0.7-4.9,1.2-7.3c0.2-1.1,0.5-2.2,0.9-3.3
		c0.2-0.7,0.3-1.3,0.4-2c0.2-1.1,0.4-2.3,0.7-3.4c0.7-2.5,1.5-4.9,2.1-7.3c0.4-1.3,0.5-2.7,0.8-4c0-0.3,0.1-0.6,0.2-0.8
		c1-1.5,0.8-3.2,0.8-4.9c0-0.8,0.2-1.5,0.6-2.1c0.5-0.8,1-1.6,1.5-2.4l3-5.3c0.1-0.2,0.2-0.3,0.4-0.4c0.8-0.6,1.3-1.4,1.5-2.4
		c0.1-0.8,0.4-0.9,1.5-0.7c0.3,0.6,0.3,1.2,0.1,1.8c-0.4,1.7-0.9,3.4-1.3,5.1c-0.4,1.4-0.7,2.8-1,4.2c-0.1,0.5-0.2,1.1-0.2,1.6
		c-0.2,2.2-0.9,4.3-1.3,6.4c-0.3,1.7-0.6,3.3-0.9,4.9c-0.3,1.4-0.7,2.8-0.9,4.2c-0.5,3.2-0.8,6.5-1.3,9.7c-0.1,0.6-0.2,1.2-0.3,1.9
		c-0.2,1.6-0.4,3.2-0.7,4.8c-0.2,1.3-0.5,2.6-0.6,3.9c-0.2,2.1-0.4,4.1-0.6,6.2c-0.2,1.5-0.5,3.1-0.6,4.6c-0.2,2.5-0.9,4.8-1,7.3
		c-0.1,1.4-0.4,2.8-0.8,4.2c-0.2,1-0.6,2.1-0.8,3.1c-0.1,0.3-0.1,0.6,0,0.9c0.2,0.8,0.2,1.6-0.1,2.3c-0.4,2.3-0.8,4.6-1.2,6.8
		c-0.2,1-0.5,1.9-0.7,2.9c-0.5,2.4-1,4.9-1.5,7.3c-0.4,1.9-0.9,3.9-1.3,5.9c0,0.3,0,0.6,0.1,0.9c1.4-1,2.3-2.5,2.5-4.3
		c0.3-2,0.7-4.1,1-6.1c0-0.8,0.2-1.7,0.4-2.5c0.4-1.3,0.6-2.6,0.7-4c0-0.1,0-0.2,0-0.2c0.6-2.1,1.1-4.2,1.2-6.4
		c0.1-0.5,0.2-0.9,0.3-1.4c0.3-0.9,0.4-1.9,0.2-2.8c0-0.2,0-0.4,0.1-0.6c0.3-1.4,0.5-2.8,0.8-4.2c0.1-0.8,0.1-1.7,0.2-2.5
		c0.3-1.7,0.7-3.3,0.9-4.9c0.4-3.6,1.3-7.3,1.1-11c0.1-1.2,0.2-2.4,0.5-3.5c0.2-1.7,0.4-3.4,0.7-5.1c0.4-2.5,1-5,1.4-7.5
		c0.1-0.7,0.1-1.4,0.2-2.1c0.4-4.1,1.4-8,2.1-12c0.6-2.4,0.9-4.9,1-7.4c0-0.2,0-0.4,0.1-0.6c0.9-1.4,0.8-3.1,1.2-4.7
		c0.5-1.8,1-3.6,1.6-5.4c0-0.1,0.2-0.2,0.3-0.3c0.7,0.2,1.3,0.4,1.9,0.6c0.2,0.1,0.3,0.2,0.4,0.4c0.4,0.7,1.1,1.2,1.9,1.5
		c0.4,0.1,0.7,0.5,1,0.8c0.3,0.3,0.6,0.7,1,1c0.7,0.7,1.7,1.2,2.7,1.5c0.8,0.2,0.9,0.5,0.9,1.3c0,1.2-0.5,2.3-0.1,3.5
		c-0.5,1.5,0.3,3,0.4,4.5c0,0.4,0,0.9,0,1.4c0,1.3,0,2.4,0,3.8c0,1.4-0.1,2.8-0.1,4.2c0,1.8,0,3.6-0.1,5.4c-0.1,2.1,0.2,4.2-0.3,6.2
		c0,0,0,0.1,0,0.1c0.2,2-0.4,4-0.1,6c0.2,1.3-0.3,2.6-0.1,3.8c0.2,1.3,0,2.5,0,3.8c0.1,2.4,0.2,4.9,0.2,7.3c0.1,2.7,0.1,5.5,0.2,8.2
		c0.1,1.7,0.3,3.3,0.4,5c0,0.7,0,1.4,0,2.2c0.1,2.1,0.1,4.2,0.3,6.3c0.2,1.7,0.3,3.5,0.5,5.2c0.1,1.2,0.4,2.4,1.1,3.5
		c0.2,0.7,0.4,1.4,0.4,2.1c0.1,0.6-0.2,1.3,0.3,1.8s1.1,0.3,1.7,0.5c1.7,0.5,2.8-0.4,3.7-1.6c0.5-0.9,0.9-1.8,1.3-2.7
		c0.6-0.9,0.8-1.9,0.6-2.9c-0.1-0.9-0.1-1.7,0-2.6c0-1.5,0-3,0-4.5c0-1.2,0.1-2.3,0-3.5c-0.1-0.4-0.2-0.8-0.4-1.2
		c0.8-1.1,0.6-2.5,0.6-3.8c0.1-3.7,0-7.5,0-11.2c0-1.1,0.2-2.1,0.2-3.2c0.1-1.9,0.1-3.8,0.3-5.7c0.1-1,0.2-2,0.3-3
		c0-0.4-0.1-0.8-0.2-1.1c-0.1-0.5-0.3-1-0.1-1.4c0.5-1.1,0.2-2.2,0.5-3.3c0.1-0.9,0.2-1.7,0.2-2.6c0.1-0.5,0.1-1.1,0-1.7
		c-0.2-1-0.3-2-0.2-3c-0.1-1.6-0.1-3.2-0.1-4.9c0-0.7,0.1-1.4,0.2-2.1c0-0.4,0-0.9,0-1.3c0-0.2-0.1-0.5-0.1-0.7
		c0.1-1.5,0.1-3.1-0.1-4.6c-0.1-0.3-0.1-0.6,0-0.9c0.3-1.5,0.3-3.1,0.1-4.7c0-0.6,0-1.2,0.2-1.8c0-0.2,0.3-0.4,0.5-0.5
		c1.8-0.6,3-2.1,4.6-3.1c1.3-0.9,2.6-1.8,3.8-2.9c0.3-0.2,0.5-0.5,0.8-0.7c0.8-0.7,1.4-0.7,2,0.1c0.5,0.7,1,1.4,1.5,2.2
		c1.4,2,2.8,4.1,4.1,6.1c0.5,0.8,0.9,1.6,1.3,2.4c0.1,0.3,0.3,0.6,0.5,0.8c1.3,1.6,2.4,3.4,3.1,5.3c0.5,1,1.1,2,1.7,3
		c0.2,0.2,0.3,0.5,0.4,0.7c0.2,0.7,0.3,1.5,1.1,1.9c0.1,0.1,0.2,0.2,0.2,0.3c-0.1,0.9,0.6,1.4,1,2c0.4,0.6,0.7,1.2,0.7,2
		c-0.1,0.5,0.2,0.9,0.7,1c0.4,0.2,0.7,0.4,0.9,0.7c1,1.3,1.9,2.7,2.8,4c0.6,0.8,1.1,1.6,1.6,2.4c0.4,0.7,1.1,1.8,1.5,2.6
		c0.9,1.7,1.7,3.4,2.5,5.1c0.3,0.6,0.6,1.1,0.9,1.7c0.9,1.4,1.9,2.8,2.9,4.1c0.9,1.1,1.8,2.2,2.8,3.2c0.4,0.5,1,0.7,1.6,0.7
		c0.3,0,0.6,0.4,0.9,0.7c0.4-0.2,0.9-0.2,1.3-0.4c0.8-0.4,1.5-0.9,2-1.6c0.5-0.7,0.6-1.6,0.4-2.4c-0.2-1-0.3-2-0.4-3
		c-0.1-0.5-0.3-1.1-0.5-1.6c-0.3-0.6-0.6-1.2-0.8-1.8c-0.2-0.9-0.5-1.7-0.9-2.6c-0.3-1-1-1.8-1.8-2.4c-0.3-0.2-0.5-0.4-0.6-0.8
		c-0.2-1.4-1.2-2.5-1.7-3.7c-0.5-1.2-1.2-2.3-1.9-3.4c-0.4-0.6-0.8-1.2-1.2-1.9c0,0,0-0.1-0.1-0.1c-0.7-1.4-1.3-2.7-1.9-4.1
		c0-0.1,0-0.2-0.1-0.2c-1-0.6-1.1-1.7-1.6-2.6c-0.1-0.2-0.2-0.3-0.3-0.5c-0.8-0.9-1.6-1.7-1.3-3c-0.6-1.1-1.2-2.2-1.8-3.3
		c-0.5-0.8-1.1-1.6-1.6-2.5c-0.2-0.4-0.3-0.8-0.9-0.8c-0.1,0-0.4-0.5-0.4-0.7c0.2-0.5-0.1-0.7-0.3-1.1c-0.5-1-1-2.1-1.5-3.1
		c-0.7-1.3-1.4-2.6-2.1-3.9c-0.5-0.9-1.1-1.8-1.5-2.7c-0.3-0.6-0.7-1.1-1.4-1.1c-0.1-0.1-0.1-0.2-0.1-0.3c0.5-1.6-0.5-2.9-1.2-4.2
		c-0.4-0.8-0.8-1.6-1.1-2.4c-0.1-0.3,0-0.6,0.2-0.9c0.6-0.9,1.2-1.8,1.8-2.7c1-1.3,2.1-2.5,3.3-3.5c0.6-0.7,1.2-1.3,1.8-2.1
		c0.7-0.8,1.4-1.7,2.1-2.6c0.3-0.4,0.6-0.7,1-1c0.5-0.3,0.9-0.7,1.2-1.1c0.5-0.8,1.2-1.5,1.9-2.1c0.3-0.3,0.6-0.7,0.9-1.1
		c0.7-1.2,1.3-2.3,1.9-3.5c0.1-0.1,0.2-0.3,0.3-0.4c1.5-1.5,2.2-3.5,3.4-5.1c1-1.5,2-3,3-4.5c0.3-0.5,0.6-1.1,0.9-1.6
		c0.3-0.5,0.7-0.9,1.2-1.3c1-1,1.9-2.1,2.5-3.4c1.1-1.6,2-3.3,2.8-5c0.6-1.5,2.1-2.6,2.6-4c0.5-1.4,1.2-2.8,1.8-4.1
		c0.1-0.3,0.3-0.6,0.5-0.9c0.1-0.2,0.3-0.3,0.3-0.5c0.1-1.2,1.1-2.1,1.4-3.2c0.4-1.3,0.8-2.6,1.1-4c0.3-1.2,0.4-2.5,0.5-3.8
		c0.2-1.3,0.5-2.5,0.7-3.8c0.2-1.2,0.6-2.5,1-3.7c0.3-1.2,0.4-2.4,0.4-3.7c0.2-2.5,0.4-5.1,0.5-7.6c0.1-1.3-0.1-2.7-0.1-4
		c0-0.8,0.1-1.7,0.2-2.5c0.3-1.5,0.2-3-0.3-4.5c-0.2-0.8-0.4-1.5-0.5-2.3c-0.1-0.2,0-0.4-0.1-0.6c-0.5-1-0.8-2.1-0.6-3.2
		c0-1.5-0.3-2.9-0.8-4.3c-0.5-1.5-0.9-3-1.5-4.5c-0.3-0.7-0.7-1.3-1-2c-0.4-0.9-0.8-1.7-1.1-2.6c-0.4-1.2-1.2-2.4-2.1-3.3
		c-1.5-1.7-3-3.3-4.6-4.9c-1.2-1.2-2.5-2.2-3.7-3.3c-0.1-0.1-0.2-0.4-0.3-0.5c-0.6-0.8-1.2-1.8-2.4-1.3c0,0,0,0-0.1-0.1
		c-0.4-0.4-0.4-1,0-1.4c1.1-1.7,1.7-3.7,2.6-5.5c0.7-1.4,1.6-2.8,2.4-4.1c0.4-0.7,0.9-1.3,1.3-2c0-0.1,0.1-0.2,0.1-0.2
		c1.3-0.9,1.5-2.4,2.1-3.6c0-0.1,0.1-0.2,0.1-0.2c1.1-1.4,1.6-3.2,2.6-4.7c0.5-1.1,1.4-1.9,2.4-2.5c0.8-0.5,1.3-1.4,1.3-2.4
		c0.1-1.2,0.7-2.2,1.6-3c0.3-0.2,0.5-0.5,0.5-0.9c0.1-0.6,0.4-1.1,1-1.4c1-0.7,1.7-1.6,2.1-2.7c0.1-0.2,0.1-0.4,0.3-0.5
		c0.6-0.5,0.9-1.4,0.7-2.1c-0.1-0.5,0.1-0.9,0.7-0.9c0.6,0,1.2-0.3,1.6-0.8c0.7-0.8,1.8-0.9,2.7-0.4c0.5,0.2,1,0.4,1.5,0.5
		c0.3,0.8,1.3,1.2,2,1.7l3.1,2.3c-0.3,0.3-0.5,0.5-0.6,0.7c-0.8,0.9-1.4,2-1.7,3.2c-0.6,1.6-1.3,3.1-2.1,4.5l-2.3,4.9
		c-0.3,0.8-0.7,1.5-1.1,2.3c-1.2,2.2-1.8,4.6-2.7,6.9c-0.8,1.9-1.6,3.8-2.3,5.8c-0.5,1.3-0.8,2.7-1.1,4c-0.1,0.1-0.1,0.4-0.1,0.5
		c0.2,0.3,0.4,0.7,0.7,0.7c0.3,0,0.6-0.2,0.8-0.5c0.5-1.4,0.8-2.9,1.3-4.3c0.2-0.7,0.5-1.4,0.8-2c0.5-1.1,1-2.1,1.6-3.2
		c0.2-0.3,0.3-0.7,0.3-1.1c0-1.6,1-2.9,1.5-4.4c0.3-1,0.7-2,1.2-3c1-1.6,1.7-3.4,2.6-5.1c1-1.9,1.8-3.8,2.7-5.8
		c0.4-0.9,0.9-1.7,1.3-2.5c0.1-0.1,0.3-0.3,0.5-0.3c0.8-0.4,1.7-0.7,2.6-0.9c1.3-0.2,1.7-1.2,2.1-2.2c0.3-0.7,0.5-1.4,0.8-2.1
		c0.5-1,0.7-2.2,0.6-3.3c-0.1-0.7-0.7-1.2-1.3-1.2c-1,0-1.7-0.7-2.5-1.1c0.2-0.2,0.3-0.4,0.5-0.6c0.5-0.4,1-0.7,1.4-1.1
		c1.3-1.1,2.4-2.5,3.2-4c0.2-0.3,0.5-0.6,0.9-0.7c1-0.4,2.1-0.8,3.1-1.2c0.2,0,0.3-0.1,0.5-0.1c0.1,0.7-0.1,1.4-0.5,2
		c-0.9,1.4-1.3,3.1-1.3,4.8c0,0.6,0,1.3,0.1,1.9c0.2,0.7,0.4,1.4,0.7,2c0.4,0.8,0.2,1.8-0.6,2.3c-0.6,0.6-1.1,1.4-1.4,2.2
		c-0.6,1.3-1.2,2.6-1.8,4c-0.5,1.2-0.9,2.4-1.4,3.5c-0.1,0.3-0.1,0.7-0.1,1.1c0,0.3,0.2,0.5,0.4,0.6c0.3,0,0.5-0.1,0.7-0.3
		c0.2-0.2,0.3-0.4,0.4-0.7l1.6-4.5c0.2-0.5,0.4-1,0.7-1.5c0.3-0.7,0.8-1.5,1.2-2.1c0.5-0.5,1-1,1.6-1.4c0.7,0.3,1.4,0.7,2,1.3
		c0.6,0.9,1.5,1.5,2.6,1.7c0.8,0.1,1,0.5,0.8,1.4c-0.3,1.3,0.3,2.3,0.8,3.5c0.4,1.2,0.2,1.6-1.1,1.6c-1.8,0-3.6,0.2-5.4,0.6
		c-0.3,0-0.6,0.1-0.8,0.3c-0.2,0.2-2.8,1.2-3.4,1.5c-0.3,0.1-0.7,0.2-1.1,0.2c-0.5,0-2.9,1.2-3.3,1.4c-0.1,0-0.1,0.1-0.1,0.1
		c-0.7,0.6-1.3,1.2-1.9,1.8c-0.2,0.2-0.5,0.4-0.8,0.5c-0.7,0.3-1.5,0.6-1.7,1.5c0,0.1-0.2,0.2-0.4,0.2c-0.7,0.5-1.4,1.1-1.9,1.8
		c-0.6,0.7-1,1.5-1.2,2.4c-0.1,0.4-0.6,0.8-1,1.2c-0.3,0.2-0.5,0.6-0.4,1c0,0.3-0.1,0.5-0.2,0.8c-0.6,0.9-0.9,2-0.8,3.1
		c0,0.3,0,0.6-0.1,0.9c-0.4,1.1-0.3,2.2,0.3,3.2c0,0,0.1,0.1,0.1,0.1c0.3,0.5,0.1,1.1-0.3,1.4c-0.8,0.4-1,1.2-1.6,1.8
		c0.3,0.5,0.1,1.2,0.8,1.6c0.1,0,0.1,0.6,0.1,0.8c-0.1,0.2-0.2,0.3-0.4,0.4c-2.5,0.9-3,3.3-3.5,5.5c-0.3,1.2-0.1,2.5-0.3,3.8
		c-0.2,1-0.2,2,0,3c0.2,1.4,0.9,2.6,2,3.4c-0.4,0.6,0,1,0.5,1.5c0.3,0.3,0.6,0.7,0.9,1.1c0.4,0.5,0.6,1.1,1.4,1.2
		c0.1,0,0.3,0.3,0.4,0.4c0.5,0.7,1.3,1.2,2.1,1.5c0.3,0.1,0.6,0.3,0.9,0.3c1,0.2,1.7,1.1,1.6,2.2c0,0.2,0,0.4,0.1,0.6
		c0.4,0.6,0.8,1.1,1.2,1.7c0.5,0.8,1.2,1.4,2,1.8c0.6,0.4,1.2,0.9,1.6,1.5c0.3,0.4,0.6,0.6,1,0.4c0.3,0.3,0.6,0.6,1,0.9
		c1.1,0.6,2.3,1.1,3.4,1.7c1.3,0.6,2.7,1,4.1,1.4c0.2,0.1,0.4,0,0.6,0.1c1.3,0.8,2.7,0.7,4.1,1c1.1,0.1,2.1,0.4,3.2,0.7
		c0,0,2.9,0.1,3.5-0.3c0.3-0.1,0.7-0.2,1-0.2c1.3-0.1,2.5-0.1,3.8-0.3c0.6-0.2,1.2-0.4,1.8-0.7c0.6-0.2,1.2-0.4,1.9-0.4
		c0.8,0,1.6-0.4,2.1-1c0.6-0.6,1.3-0.9,2.1-0.9c1.1-0.1,2.2-0.6,2.9-1.4c0.1-0.1,0.2-0.1,0.4-0.2V433.3z M246.2,179.3
		c-1.1,0.7-1.8,2.1-3.2,2.5c-0.3,0-0.6,0-0.9,0c0.6-0.4,1.1-0.7,1.6-1c0.3-0.2,0.5-0.4,0.3-0.8c-0.3-0.4-0.6-0.1-0.8,0.1
		c-0.2,0.2-0.4,0.3-0.7,0.5c-0.5,0.3-0.8,0.5-1.4,0.9c-0.6,0.3-1.2,0.6-1.5,1.3c-0.2,0.3-0.4,0.4-0.7,0.4c-0.4,0-0.9,0.1-1.2,0.5
		c-0.6,0.5-1.3,0.8-2.1,0.8c-0.6,0.1-1.2,0.2-1.9,0.3c-0.3,0-0.6,0-0.9,0c-0.5,0-1,0-1.5,0c-1.1,0.2-2.1,0.6-2.1,0.6
		c-0.7-0.8-1.4,0-2-0.2c0,0,0,0,0,0c-0.7-0.2-1.4,0.2-1.6,0.9c-1.6-1.1-3.4-1.4-5.1-2c-1.1-0.5-2.1-1.1-3.1-1.8
		c-0.4-0.3-0.9-0.5-1.3-0.8c-1.7-0.9-3.3-2-4.8-3.2c-0.4-0.4-0.8-0.7-1.3-0.9c-1.1-0.5-1.7-1.6-1.5-2.8c0.1-0.8,0.2-1.5-0.7-1.9
		c-0.2-1.3-1.5-1.1-2.4-1.6c-1.1-0.5-2.1-1-3.1-1.6c-0.6-0.6-1.2-1.4-1.6-2.1c-0.3-0.3-0.5-0.6-0.7-1c-0.3-1.1-1-2-1.2-3
		c-0.2-1.7-0.2-3.5,0.1-5.2c0.2-1.1,0.3-2.2,0.5-3.3c0-0.8,0.4-1.6,1.1-2c0.8-0.4,0.7-1.3,1.3-1.8c-0.2-0.4-0.4-0.8-0.5-1.2
		c-0.3-0.6,0-1.4,0.6-1.7c0.1,0,0.1,0,0.2-0.1c0.9-0.4,1.3-1.5,0.9-2.4c-0.5-1.4-0.5-3,0-4.5c0.2-1,0.4-2.1,0.7-3.1
		c0.2-1,0.7-1.9,1.3-2.6c0.5-0.7,1-1.4,1.5-2.1c0.7-1.1,1.7-2,2.8-2.7c0.6-0.4,1.1-1,1.5-1.5c0.1-0.2,0.3-0.3,0.5-0.4
		c0.8-0.3,1.5-0.6,1.8-0.7c1.2-0.5,2.4-1,3.6-1.5c0.1,0,1.3-0.5,1.3-0.5c0.3,0.1,0.7-0.1,1.1-0.1c1.8,0.2,3.5-0.5,5.3-0.4
		c1.2,0.1,1.3,0,1.5-1.4l1,1c0.3-0.2,0.7-0.5,1.1-0.7c0.1-0.1,0.2-0.1,0.3-0.2c0.7-0.6,0.8-1.6,0.2-2.4c-0.9-1.5-1.1-3.3-0.6-4.9
		c0.1-0.4,0.1-0.8,0.2-1.4c-0.4-0.1-0.8-0.1-1.2,0c-1.5,0.5-2.7-0.3-4-0.6c-0.2,0-0.4-0.4-0.6-0.6c-1.3-1.2-1.5-3-2.4-4.4
		c0.2-1.4-0.6-2.8-0.2-4.2c0.2-1.1,0.4-2.1,0.8-3.1c0.6-1.4,1.6-2.7,2.9-3.6c0.9-0.7,1.8-1.4,2.6-2.2c0.3-0.3,0.3-0.8,0.5-1.1
		c-0.8-0.4-1.9-0.3-2.6,0.3c-0.2-0.5,0.1-0.7,0.4-0.8c0.9-0.5,1.8-1,2.8-1.5c0.3-0.2,0.6-0.3,1-0.3c1,0,2-0.2,3-0.6
		c0.7-0.3,1.3-0.6,1.8-1.1c1-0.6,1.9-1.2,2.9-1.9c0.1-0.1,0.2-0.2,0.3-0.2c0.6-0.1,1.1-0.4,1.5-0.8c0.8-0.7,1.7-1.3,2.5-1.9
		c1.5-1.2,2.7-2.5,3.8-4.1c0.5-0.6,0.8-1.3,1.2-1.9c0.2-0.2,0.4-0.4,0.6-0.6V179.3z M246.3,4.1c0,22.4,0,44.7,0,67.1
		c0,1.4-0.4,2.8-1.1,4c-0.9,1.5-1.7,3.1-2.5,4.6c-0.5,0.8-1,1.5-1.5,2.3c-0.6,0.9-1.2,1.7-1.8,2.5c-0.7,0.8-1.5,1.5-2.4,2.1
		c-0.4,0.3-0.8,0.5-1.2,0.7c-0.4,0.2-0.9,0.4-1.3,0.7c-2,1.4-4.2,2.1-6.4,3.2c-1.6,0.7-3.2,1.2-4.8,1.7c-0.5,0.2-1,0.3-1.5,0.3
		c-0.9,0-1.6,0.6-1.8,1.4c-0.3,1.1-0.9,2-1.6,2.9c-0.7,0.8-1.4,1.5-2.3,2c-1.1,0.8-3.5,1.4-4.6,0.4c-0.1,0.1-0.3,0.1-0.4,0.2
		c-0.7,0.1-0.9,0.5-0.7,1.2c0,0.2,0.1,0.4,0.1,0.6c0.3,0.6,0.1,1.3-0.4,1.8c-0.6,0.8-1.2,1.5-1.8,2.3c-1,1-2.4,1.4-3.8,0.9
		c-1.3-0.4-2.4-1.3-3.8-1.3c-0.1,0-0.1,0-0.2,0c-0.8-0.1-1.3-0.9-1.2-1.6c0-0.6,0.2-1.1,0.5-1.6c0.6-0.9,1.3-1.8,2-2.6
		c0.2-0.2,0.4-0.5,0.5-0.8c0.5-0.9,0.9-1.9,1.3-2.8c0.3-0.5,0.5-1.1,0.6-1.7c0.2-0.8,0.5-1.6,0.8-2.3c0.5-1.1,0.8-2.2,0.9-3.3
		c0.4-1.5,0.5-3.1,0.4-4.6c0-0.3,0.3-0.8,0.6-0.9c0.5-0.3,1.1-0.5,1.7-0.6c0.8-0.1,1.4-0.6,1.8-1.2c0.5-0.9,1.5-1.4,1.9-2.5
		c0.5-1.2,0.5-2.5,0.1-3.6c-0.4-1.2-1.3-2.1-2.4-2.8c-0.3-0.2-0.5-0.5-0.8-0.7c-0.3-0.2-0.6-0.4-0.9-0.5c-0.1-0.1-0.4,0-0.5-0.1
		c-0.5-0.6-1.2-0.5-1.9-0.7c-0.8-0.3-1.7-0.4-2.5-0.3c-1.3,0.1-2.5,0.7-3.2,1.8c-1,1.4-1.6,3-1.8,4.6c-0.2,0.8,0,1.7,0.6,2.3
		c0.4,0.4,0.7,0.9,1,1.4c-0.6,0.3-1.2,0.6-1.9,0.8c-1,0.4-1.7,1.2-2,2.2c-0.1,0.3-0.3,0.7-0.5,0.9c-1.3,1-2,2.6-3,3.8
		c-0.6,0.7-1.1,1.5-1.7,2.3c-0.2,0.3-0.3,0.6-0.4,0.9c-0.2,0.4-0.4,0.8-0.6,1.1c-0.6,1.1-1.2,2.1-1.8,3.2c-0.2,0.3-0.4,0.7-0.7,0.8
		c-0.7,0.2-1.1,1-0.9,1.7c0,0.1,0,0.3-0.1,0.4c-0.2,0.1-0.5,0.2-0.6,0.1c-1.3-0.7-2.7-1.5-4-2.2c-0.4-0.2-0.8-0.3-1.2-0.5
		c-0.1-0.5-0.4-0.9-1-1c-0.6-0.2-1.1-0.6-1.6-1c-0.9-0.7-1.7-1.5-2.7-2.2c-0.6-0.4-1.3-0.7-2-1c-1.3,0.6-1.6,1.7-2.2,2.6
		c-0.3,0.4-0.6,0.9-0.9,1.4c-0.3,0.7-0.6,1.4-0.9,2.1c-0.1,0.2,0,0.5-0.2,0.7c-0.3,0.4-0.5,0.8-0.1,1.3s0.7,1,1.5,1
		c1.2,0,2.3,0.3,3.3,0.9c1.1,0.7,2.2,1.1,3.3,1.7c0.2,0.1,0.4,0.2,0.5,0.2c1.1-0.1,1.7,0.8,2.5,1.2c0.4,0.2,0.4,0.6,0.3,1
		c-0.2,0.7-0.4,1.4-0.6,2.3c-0.2,0.1-0.4,0.1-0.6,0.1c-0.6,0-1.2,0.4-1.3,1c-0.4,1.3-1,2.7-1.4,4c-0.2,0.4-0.2,0.9-0.4,1.4
		c-0.2,0.7-0.3,1.4-1.1,1.8c-0.8,0.5-1.1,1.4-0.7,2.2c0.3,1,0.1,2-0.4,2.9c-0.9,0-2.3,0.2-2.5,0.3c-0.8,0.1-1.5,0.3-2.2,0.6
		c-0.7,0.5-1.7,0.6-2.5,1c-1.6,0.8-5.5,0.6-5.7,0.6c-1.5-0.1-3-0.4-4.4-0.9c-1.1-0.3-2.3-0.5-3.4-0.6c-0.7,0-1.3,0.3-1.9,0.7
		c-0.9,0.6-2,1-3.1,1c-1.5,0.1-3,0-4.4-0.4c-0.2-0.1-0.4-0.1-0.6,0c-1.4,0.2-2.5-0.5-3.7-1.1c-2.3-1.3-4.1-3.1-5.4-5.4
		c-0.4-0.7-0.6-1.5-1-2.3c-0.3-0.6-0.6-1.1-0.9-1.6c-0.2-0.3-0.3-0.7-0.3-1.1c0-0.3,0.1-0.6,0.2-0.9c0.3-1.8-1.1-2.7-2.5-2.5
		c-0.8,0-1.6,0.1-2.3,0.5c-0.1,0-0.2,0.1-0.2,0.1c-0.3,0-0.6-0.2-0.6-0.5c-0.1-0.5-0.1-1.1,0-1.6c0.2-0.9,0.2-1.9,0-2.8
		c-0.1-0.7,0-1.3,0.1-2c0.3-1.2,0.2-2.5-0.2-3.6c-0.3-0.5,0-1,0.7-1.5c1.1-0.6,1.6-2,1.1-3.1c-0.5-1-0.5-2.2,0.1-3.1
		c0.6-0.9,0.6-2,0.1-2.9c-0.2-0.4-0.1-0.9,0.2-1.3c0.6-0.6,1-1.4,1.3-2.2c0.1-0.2,0.2-0.4,0.4-0.5l2.9,0.8c0.8,0.2,1.6,0.4,2.4,0.7
		c0.8,0.1,1.6,0.4,2.3,0.8c0.6,0.3,1.3,0.5,2,0.6c0.6,0.2,1.3,0.6,2,0.9c1.2-0.7,2.1-1.8,2.6-3.1c0.6-1.4,0.3-2.9,0.3-4.3
		c0-0.9-0.1-1.8-0.1-2.6c0.1-1.9-1.1-2.9-3-2.7c-0.5,0.1-0.9,0.2-1.3,0.5c-0.2,0.1-0.4,0.2-0.5,0.2c-1.6-0.3-3.1,0.2-4.7,0.1
		c-0.3,0-0.5,0.1-0.8,0.2c-0.1,0-0.4,0.1-0.4,0c-0.5-0.6-0.9-0.2-1.4,0.2c-1.1-0.6-2.3-0.3-3.5-0.3c-0.5,0-1,0.1-1.4,0.1
		c-0.1,0-0.3,0-0.4-0.1c-0.5-0.2-0.8-0.8-0.6-1.3c0.9-2.4,1-5,0.4-7.5c-0.1-0.6-0.2-1.3-0.1-1.9c-0.1-1.7-0.5-3.5-1.2-5.1
		c-0.3-0.6-0.4-1.3-0.4-2c0-0.9-0.3-1.9-0.9-2.6c0-0.1,0-0.1,0-0.2c0.6-0.7,1.3-1.4,1.9-2.2c0.6-0.7,1.1-1.6,1.3-2.5
		c0.5-1.5,0.1-3.1-1-4.2c-1.2-1.1-2.2-2.4-4-2.7c-0.9-0.1-1.8-0.5-2.7-0.7c-0.7-0.2-1.4,0-2,0.5c-0.4,0.3-0.8,0.5-1.2,0.7
		c-1.7,1.1-2.8,2.9-3,4.9c0,0.6,0,1.2,0.2,1.8c0.1,0.4,0.1,0.9,0.2,1.3c-0.1,0.9,0.5,1.8,1.3,2.2c0.3,0.1,0.5,0.3,0.8,0.5
		c0.3,0.3,0.4,0.7,0.2,1.1c-0.7,2.3-1.5,4.5-1.2,7c0,0.3,0,0.5-0.2,0.8c-0.5,0.9-0.6,2-0.5,3c0,0.2-0.1,0.4-0.1,0.6l-0.3,2.6
		c0,0.1,0,0.2,0,0.3c-0.7,1.5-0.3,3.1-0.3,4.6c0,1-0.1,1.1-1.1,0.9c-0.9-0.3-1.9-0.4-2.8-0.2c-0.4,0.1-0.9,0-1.2-0.3
		c-0.3-0.2-0.8-0.3-1.1-0.3c-0.6,0-1.2-0.1-1.8-0.3c-1.3-0.3-2.7-0.5-4-0.7c0,0-0.1,0-0.1,0c-0.7,0-1.3,0.6-1.3,1.3
		c0,0.9,0.1,1.9-0.6,2.7c-0.2,0.2,0,0.6,0,0.9c0,1.1,0.1,2.2,0.4,3.3c0.1,0.7,0.2,1.3,0.2,2c0,0,0,0,0,0c0,1.1,0.8,1.9,1.9,2
		c1.1,0.3,2.3,0.1,3.1-0.6c0.1-0.1,0.4-0.1,0.7-0.1c1.5,0.1,2.9-0.3,4.2-1c0.9-0.6,1.5-0.2,1.8,0.8c0.1,0.3,0.3,0.6,0.5,0.9
		c0.2,0.4,0.5,0.8,0.5,1.1c-0.1,1.5,0.7,2.6,1.3,3.8c0.1,0.1,0.1,0.2,0.2,0.4c-0.4,0-0.7,0-1.1,0c-0.2,0-0.5,0.1-0.6,0.3
		c-0.5,0.4-0.5,1.1-0.1,1.5c0.5,0.5,0.7,1.2,0.6,1.8c0,0.4,0.1,0.9,0.4,1.2c0.5,0.8,0.7,1.7,0.5,2.6c0,0.5-0.1,1.1-0.2,1.7
		c-0.2-0.1-0.5-0.1-0.6-0.2c-1-1.2-2.2-0.9-3.5-0.4c-0.8,0.3-1.6,0.6-2.4,0.8c-0.9,0.3-1.8,0.2-2.7-0.1c-0.1-0.1-0.3-0.1-0.5-0.2
		c-1.4-0.1-2.7-0.5-3.8-1.2c-0.9-0.3-1.8-0.9-2.3-1.7c-0.2-0.4-0.5-0.7-0.9-1c-1-0.9-1.7-2.2-1.9-3.5c-0.2-0.9-0.5-1.8-0.8-2.6
		c-0.4-1.2-0.9-1.7-2.2-1.6c-1.9,0.1-3.7-0.1-5.6-0.4c-0.9,0-1.7-0.2-2.5-0.6c-0.3-0.1-0.5-0.2-0.8-0.1c-1.3,0.1-2.6-0.4-3.7-1.2
		c-0.7-0.4-1.4-0.7-2.2-0.8c-0.7,0-1.4-0.2-1.9-0.7c-0.1-0.2-0.4-0.2-0.6-0.3c-0.4-0.2-0.8-0.4-1.1-0.6c-0.3-0.2-0.7-0.5-1-0.7
		c-0.7-0.5-1.3-1.1-2-1.6c-0.4-0.3-0.9-0.5-1.3-0.8c-0.4-0.2-0.8-0.4-1.1-0.7c-1.2-1.3-2.3-2.6-3.3-4c-0.7-1.4-1.8-2.6-3-3.5
		c-0.4-0.3-0.7-0.7-0.8-1.2c-0.7-1.5-1.3-3-1.9-4.5c-0.7-1.7-1.3-3.4-1.9-5.1c-0.2-0.6-0.5-1.2-0.8-1.8c-0.4-0.9-0.6-1.8-0.5-2.8
		c0-1.2-0.2-2.4-0.4-3.5c-0.1-0.5-0.1-1-0.1-1.5c0.1-1.1,0.2-2.1,0.4-3.1c0.1-0.8,0.3-1.6,0.6-2.3c0.6-1.5,1.1-3.1,1.5-4.7
		c0.4-1.7,1-3.3,1.8-4.9c0.2-0.4,0.3-0.8,0.4-1.2c0.7-1.6,1.9-3,3.3-4.1c0.8-0.6,1-0.9,1-1.4c-0.2-1.3,0.6-2.5,1.8-2.8
		c0.2-0.1,0.4-0.1,0.6-0.2c0.4-0.1,0.7-0.3,1-0.6c0.4-0.7,0.2-1.6-0.4-2c-0.2-0.2-0.4-0.3-0.6-0.3c-0.9,0-1.9,0.2-2.7,0.5
		C64,25,63,25,62.2,24.6c-1.1-0.3-2.2-0.8-3.2-1.5c-0.5-0.3-1-0.8-1.3-1.4c0-0.2-0.1-0.3-0.3-0.4c-1.2-0.7-1.3-1.9-1.5-3
		c-0.1-0.5-0.1-1,0.1-1.5c0.6-1.5,1.3-2.9,1.9-4.3c0.7-1.5,1.6-2.9,2.6-4.3c0.1-0.1,0.1-0.3,0.2-0.3c0.9-0.2,1.2-1.1,1.7-1.7
		c0.2-0.2,0.4-0.4,0.7-0.5c0.1-0.1,0.3,0,0.3-0.1c0.8-1.1,2.1-1,3.1-1.6C66.7,3.9,67,3.8,67,3.7c0.5-0.9,1.3-0.9,2.2-0.9
		c2.8,0.1,5.7,0,8.5,0.1c0.8,0,1.5,0.2,2.2,0.3c0.4,0,0.7,0,1.1,0c0.5-0.1,1.1-0.2,1.6-0.1c1.7,0.4,3.3-0.1,5,0c1.5,0,3,0,4.5,0
		c0.4,0,0.9,0,1.3,0c2.5-0.3,5.1-0.3,7.6-0.2c2.1,0,4.3,0,6.4,0c1.3-0.1,14.4,0.3,15.1,0.3c1.1,0,2.2,0,3.2,0c1.5-0.1,3.1,0,4.6,0
		c1.5,0.1,3-0.1,4.5,0c2.3,0.1,4.5-0.1,6.8-0.1c2.3,0,4.6-0.1,6.9-0.2c2-0.1,4.1-0.2,6.1-0.2c1.2,0,2.3,0.2,3.6,0.2
		c1.3,0,2.5,0,3.8,0c2.3,0,4.7,0.1,7.1,0.1c1.2,0,2.5-0.1,3.7-0.1c0.5,0,1,0,1.4,0c2.2,0,4.3,0.2,6.5,0c2.8-0.2,5.6,0.2,8.5,0.2
		c0.9,0,1.8,0,2.7,0c2.7,0,5.4,0,8-0.1c3.4-0.1,6.8,0,10.3,0c0.3,0,0.6,0,0.8-0.1c0.6-0.2,1.1-0.3,1.7-0.3c1.7,0.1,3.5,0.1,5.2,0
		c2.1-0.1,4.1-0.2,6.2-0.2c0.8,0,1.7,0.2,2.5,0.2c2,0.2,4.1,0.2,6.1,0.2c1.1-0.1,2.2-0.1,3.3-0.2c0.7-0.1,1.3-0.2,2-0.4
		c0.9-0.3,1.8-0.2,2.7,0c0.4,0.1,0.7,0.1,1.1,0c0.8-0.2,1.6-0.2,2.3,0c0.6,0.1,1.2,0.2,1.8,0.3V4.1z"/>
	<path d="M147.8,300.5c0,0-0.1,0-0.1,0c-0.5,1.1-0.8,2.3-0.8,3.5c-0.1,1.5-0.4,3-0.9,4.5c-0.2,0.8-0.3,1.6-0.3,2.4
		c-0.2,1.7-0.3,3.4-0.6,5.1c-0.2,1.7-0.6,3.3-0.9,4.9c-0.5,2.9-1,5.8-1.5,8.7c-0.5,2.9-1.2,6-1.6,9c-0.3,2.5-1,4.9-1.4,7.4
		c-0.3,1.9-0.9,3.6-1.2,5.5c-0.5,2.7-0.8,5.5-1.5,8.2c-0.1,0.6-0.2,1.2-0.2,1.8c0,0.8,0,1.7-0.2,2.5c-0.3,0.9-0.5,1.8-0.7,2.8
		c-0.6,3.5-1.3,7-2,10.5c-0.2,1-0.2,2.1-0.3,3.1s-0.4,2.3-0.5,3.4c-0.1,0.7-0.2,1.4-0.3,2.1c-0.5,2.6-1.1,5.2-1.6,7.8
		c-0.3,1.6-0.4,3.2-0.6,4.7c0,0.3,0.1,0.6,0.2,1c1-0.5,1.6-1.5,1.7-2.6c0.1-1.5,0.3-2.9,0.6-4.4c0.2-1,0.4-1.9,0.6-2.9
		c0.3-1.4,0.7-2.7,0.9-4.1c0.4-2,0.7-4,1-6c0.1-0.7,0.3-1.4,0.4-2.1c0.3-2.1,0.5-4.1,0.8-6.2c0.4-2.9,0.9-5.7,1.4-8.6
		c0.2-1.3,0.5-2.5,0.8-3.7c0.4-2.4,0.8-4.8,1.3-7.2c0.2-1.3,0.6-2.6,0.9-4c0.3-1.8,0.7-3.6,1.1-5.4c0.7-2.1,0.5-4.3,1-6.4
		c0.4-1.8,0.4-3.6,0.7-5.4c0.2-1.3,0.5-2.6,0.8-3.9c0.4-2.5,0.8-4.9,1.2-7.4c0.3-1.8,0.6-3.5,0.8-5.3c0.1-1.3,0.3-2.6,0.7-3.9
		c0.2-0.8,0.4-1.5,0.5-2.3c0.1-0.7,0.2-1.3,0.3-2c0.2-1.1,0.4-2.3,0.6-3.4C149,301.5,148.6,300.7,147.8,300.5z"/>
	<path d="M135.1,304c0.4-1,0.7-2,1-3c0.5-1.7,0.9-3.4,1.4-5c0.2-0.8-0.1-1.6-0.8-2c-0.3,0.3-0.5,0.6-0.6,1c-0.6,1.2-0.9,2.5-1,3.8
		c0,0.3-0.1,0.6-0.2,0.9c-0.3,1.3-0.6,2.6-0.8,3.8c-0.2,0.6,0,1.2,0.5,1.7C134.7,304.7,134.9,304.4,135.1,304z"/>
	<path d="M131.2,332.7c0.8-0.1,0.9-0.6,1.1-1.3l0,0c0.1-0.7,0.4-1.5,0.6-2.2c0.1-0.4,0.3-0.8,0.4-1.2c0.5-2.5,1-4.9,1.5-7.4
		c0.6-2.9,1.3-5.8,1.9-8.7c0.5-2.1,1.1-4.1,1.4-6.3c0.3-1.8,0.8-3.6,1.2-5.4c0.3-1.4,0.6-2.9,1-4.3c0-0.2,0.1-0.4,0.2-0.5
		c0.5-0.7,0.5-1.6,0-2.3c-0.2-0.3-0.4-0.4-0.7-0.4c-0.3,0.1-0.5,0.3-0.7,0.5c-0.3,0.8-0.5,1.7-0.7,2.5c-0.6,3.1-1,6.3-1.7,9.4
		c-0.9,4.3-2,8.7-3,13c-0.8,3.2-1.5,6.5-2.2,9.8c-0.1,0.8-0.5,1.6-1.2,2.1C131.6,330.7,130.8,331.9,131.2,332.7z"/>
	<path d="M50.8,316c-0.6,0.6-1,1.4-1.1,2.2c-0.2,0.7-0.3,1.3-0.5,2c-0.1,0.3-0.2,0.7-0.3,1c-0.3,1.4-0.3,2.8-0.7,4.2
		c-0.5,2.2-0.8,4.4-1.2,6.6c-0.6,3.2-1.3,6.4-2,9.6c-0.3,1.5-0.8,3.1-1.1,4.6c-0.4,2-0.6,4.1-0.9,6.1c-0.1,0.7-0.1,1.4-0.2,2.2
		c-0.3,1.8-1,3.5-0.9,5.4c0,0.2-0.1,0.4-0.2,0.6c-0.5,1.8-0.8,3.7-0.9,5.6c-0.1,1-0.2,2-0.4,3c-0.4,2.2-0.8,4.5-1.1,6.7
		c-0.1,1.9-0.4,3.8-0.7,5.7c-0.8,3-1,6-1.7,9c-0.4,1.6-0.6,3.2-1,4.8c-0.6,2.9-1.3,5.7-2,8.6c-0.5,2.1-0.8,4.3-1.2,6.5
		c-0.5,2.8-1,5.6-1.4,8.3c-0.4,2.4-0.5,4.8-0.3,7.3c0,0.2-0.1,0.5,0,0.7s0.3,0.5,0.4,0.5c0.2,0,0.4-0.2,0.5-0.4
		c0.1-0.3,0.1-0.6,0.1-0.9c0-1.4,0.2-2.8,0.4-4.2c0.3-1.2,0.4-2.4,0.5-3.6c0.1-0.5,0.1-1.1,0.2-1.7c0.1-0.7,0.3-1.5,0.5-2.2
		s0.2-1.7,0.4-2.6c0.4-2.2,0.8-4.3,1.2-6.5c0.2-1,0.5-2,0.6-3c0.3-2.4,0.9-4.8,1.8-7c0.1-0.3,0.2-0.6,0.2-0.9
		c0.1-1.9,0.4-3.8,0.9-5.7c0.3-1.4,0.7-2.7,1-4c0.4-2.6,0.7-5.2,1-7.8s0.8-5,1.2-7.5c0.2-0.6,0.3-1.1,0.4-1.7c0.1-1.5,0.2-3,0.5-4.5
		c0.2-1.7,0.4-3.4,0.7-5.1c0.1-1.1,0.3-2.2,0.5-3.3s0.4-1.9,0.5-2.8c0.2-1.5,0.4-2.9,0.7-4.3c0.4-1.9,1-3.8,1.5-5.8
		c0.5-2.4,1.1-4.7,1.5-7.1c0.4-1.6,0.7-3.3,0.8-4.9c0.2-1.6,0.5-3.1,0.9-4.7c0.4-2.4,1-4.7,1.4-7C51.7,317.2,51.4,316.5,50.8,316z"
		/>
	<path d="M231.1,407c-0.3-0.1-0.8-0.1-1-0.3c-0.8-0.8-1.8-0.6-2.7-0.6c-0.6,0-1.1,0.5-1,1.1c0,0,0,0,0,0c0,0.5,0.3,1,0.8,1
		c0.7,0.2,1.5,0.3,2,0.4c0.7,0,1.3-0.1,2-0.3h0c0.3-0.1,0.6-0.4,0.7-0.7C231.9,407.2,231.4,407.2,231.1,407z"/>
	<path d="M54.6,263.5c0.2-1.6,0.5-3.3,0.7-5c0.4-2.3,0.8-4.6,1.2-6.8c0.4-2.5,0.9-5,1.4-7.5c0.2-1.1,0.1-1.5-1.1-2.2
		c-0.3,1-0.7,1.9-0.8,2.8c-0.6,3.1-1.1,6.2-1.7,9.4c-0.3,1.8-0.6,3.7-0.9,5.5c-0.2,1.3-0.5,2.6-0.7,4c-0.4,2-0.9,4-1.4,6.1
		c-0.4,1.6-0.8,3.2-1.1,4.9c-0.5,2.9-0.9,5.7-1.4,8.6c-0.2,1.5-0.6,3-0.9,4.4c-0.4,2.1-0.8,4.1-1.3,6.2c-0.6,2.8-1.5,5.6-1.7,8.5
		c0,0.4-0.2,0.9-0.2,1.3c-0.3,1.9-0.5,3.8-0.8,5.7c-0.1,0.6-0.1,1.2-0.2,1.9c-0.1,0.6-0.2,1,0.4,1.4c0.6-0.1,1-0.6,1-1.2
		c0.1-0.3,0.1-0.7,0.2-1.1c0.2-1.2,0.6-2.3,0.8-3.5c0.2-1.2,0.3-2.1,0.5-3.2c0-0.3,0-0.6,0.1-0.8c0.1-0.7,0.2-1.5,0.3-2.2
		c0.3-1.4,0.7-2.9,0.9-4.3c0.2-1.6,0.5-3.2,1-4.8c0.2-0.9,0.3-1.7,0.4-2.6c0.1-0.5,0.2-1,0.4-1.5c0.1-0.3,0.2-0.6,0.3-0.9
		c0.2-1.6,0.7-3.2,0.9-4.8c0.4-3.2,0.9-6.3,1.7-9.4c0.5-2.7,1.1-5.4,2-8.1C54.5,264,54.6,263.8,54.6,263.5z"/>
	<path d="M62.3,260.7c0.6-2.4,1.1-4.8,1.6-7.2c0.2-0.7,0.2-1.3,0.4-2c0.5-1.9,1-3.8,1.4-5.8c0.1-0.4,0.1-0.9,0.1-1.3
		c0.1-0.5-0.3-1-0.9-1.1c0,0-0.1,0-0.1,0c-0.6,0.4-1,1.2-1,1.9l0,0c0,0.6-0.1,1.2-0.2,1.8c-0.4,1.6-0.8,3.1-1.1,4.7
		c-0.2,1.1-0.3,2.3-0.5,3.4c-0.4,1.8-0.8,3.5-1.2,5.2c-0.7,3.2-1.4,6.5-2.1,9.7c0,0.2-0.1,0.4-0.1,0.6c-0.1,1-0.2,2-0.4,2.9
		c-0.6,3.2-1.2,6.4-1.8,9.6c0,0.3-0.1,0.5-0.2,0.8c-0.4,0.7-0.6,1.6-0.5,2.4c0,0.3-0.1,0.6-0.1,0.9c-0.5,2.4-1.1,4.8-1.6,7.2
		c-0.2,0.8-0.4,1.6-0.5,2.5c-0.3,1.7-0.6,3.4-0.9,5c0,0.3,0.1,0.5,0.3,0.7c0.2,0.1,0.4,0.1,0.6-0.1c0.2-0.2,0.4-0.4,0.5-0.7
		c0.3-1.1,0.6-2.2,0.8-3.3c0.4-1.8,0.6-3.7,1-5.5c0.2-1,0.4-2,0.6-2.9c0.2-0.5,0.3-1.1,0.4-1.6c0.1-1,0.3-2,0.7-3
		c0.1-0.3,0.2-0.5,0.2-0.8c0.1-1.1,0.2-2.1,0.5-3.2c0.8-2.4,0.9-5,1.4-7.5c0.5-2.5,0.8-4.9,1.3-7.3
		C61.2,264.6,61.8,262.7,62.3,260.7z"/>
	<path d="M139.9,312.9c-0.1,0.5-0.3,1.1-0.4,1.6c-0.2,0.8-0.4,1.7-0.6,2.5c-0.3,2-0.8,4-1.4,5.9c-1.2,3.3-1.7,6.7-2.6,10
		c-0.1,0.5-0.1,1-0.3,1.5c-0.5,1.7-1,3.3-1.4,4.9c-0.2,0.8-0.4,1.7,0.5,2.4c1.3-0.2,1.4-0.5,1.6-1.5c0.1-0.5,0.2-1.1,0.3-1.6
		c0.2-0.8,0.5-1.7,0.6-2.5c0.2-1.1,0.3-2.2,0.5-3.3c0.5-3.2,1.2-6.3,2.3-9.4c0.1-0.2,0.1-0.4,0.1-0.6l1-3.7c0.1-0.5,0.3-1,0.4-1.5
		c0.3-1.6,0.6-3.2,0.9-4.8c0.2-1.1,0.4-2.2,0.6-3.3c0.2-1.1,0.4-2,0.6-2.9c0.4-2.1,0.9-4.2,1.3-6.3c0.1-0.5,0.3-0.9,0.5-1.3
		c0.5-0.8,0.5-1.7,0.2-2.5c-0.1-0.3-0.4-0.8-0.6-0.8c-0.4,0.1-0.7,0.3-0.9,0.6c-0.1,0.1-0.1,0.3-0.2,0.5s-0.1,0.6-0.2,0.9
		c-0.5,1.1-0.8,2.2-1,3.3c-0.1,1.9-0.7,3.7-1,5.5c-0.1,0.7-0.1,1.3-0.2,2C140.4,310.1,140.2,311.5,139.9,312.9z"/>
</g>
</svg>
